<svg width="50" height="50" fill="none" xmlns="http://www.w3.org/2000/svg"><g clip-path="url(#clip0_33_821)"><path d="M42.188 34.597V15.403a6.236 6.236 0 10-7.591-7.59H15.403a6.237 6.237 0 10-7.59 7.59v19.194a6.236 6.236 0 107.59 7.59h19.194a6.237 6.237 0 107.59-7.59zM40.625 6.25a3.125 3.125 0 110 6.25 3.125 3.125 0 010-6.25zM6.25 9.375a3.125 3.125 0 116.25 0 3.125 3.125 0 01-6.25 0zM9.375 43.75a3.126 3.126 0 110-6.251 3.126 3.126 0 010 6.25zm25.222-4.688H15.403a6.24 6.24 0 00-4.465-4.465V15.403a6.242 6.242 0 004.465-4.466h19.194a6.24 6.24 0 004.466 4.466v19.194a6.239 6.239 0 00-4.466 4.465zm6.028 4.688a3.126 3.126 0 110-6.251 3.126 3.126 0 010 6.25z" fill="#01ABBB"/></g><defs><clipPath id="clip0_33_821"><path fill="#fff" d="M0 0h50v50H0z"/></clipPath></defs></svg>