<svg width="50" height="50" fill="none" xmlns="http://www.w3.org/2000/svg"><g clip-path="url(#clip0_33_824)" fill="#01ABBB"><path d="M43.75 3.125H25a3.128 3.128 0 00-3.125 3.125v15.625H6.25A3.128 3.128 0 003.125 25v21.875h43.75V6.25a3.129 3.129 0 00-3.125-3.125zM14.062 43.75V32.812h6.25V43.75h-6.25zm29.688 0H23.437v-12.5a1.563 1.563 0 00-1.562-1.563H12.5a1.563 1.563 0 00-1.563 1.563v12.5H6.25V25H25V6.25h18.75v37.5z"/><path d="M31.25 12.5h-3.125v3.125h3.125V12.5zm9.375 0H37.5v3.125h3.125V12.5zm-9.375 9.375h-3.125V25h3.125v-3.125zm9.375 0H37.5V25h3.125v-3.125zM31.25 31.25h-3.125v3.124h3.125V31.25zm9.375 0H37.5v3.124h3.125V31.25z"/></g><defs><clipPath id="clip0_33_824"><path fill="#fff" d="M0 0h50v50H0z"/></clipPath></defs></svg>