<svg width="47" height="36" fill="none" xmlns="http://www.w3.org/2000/svg"><path d="M13.522 1A5.344 5.344 0 008.6 4.315c-.004.016-.029.016-.033.033L5.42 11.714H4.214A3.231 3.231 0 001 14.93a3.231 3.231 0 003.214 3.214V32.07a3.231 3.231 0 003.215 3.215h3.214a3.231 3.231 0 003.214-3.215V31h19.286v1.071a3.231 3.231 0 003.214 3.215h3.214a3.231 3.231 0 003.215-3.215V18.143A3.231 3.231 0 0046 14.929a3.231 3.231 0 00-3.214-3.215H41.58l-3.147-7.366c-.004-.017-.03-.017-.033-.033-.82-2-2.78-3.315-4.922-3.315H13.522zm0 2.143h19.956c1.268 0 2.469.82 2.946 2.009l.034.033 3.013 7.065-1.038.703v.034c-.887.619-1.837.87-2.946.87H11.513c-1.109 0-2.059-.251-2.946-.87v-.034l-1.038-.703 3.013-7.065.034-.033c.477-1.189 1.678-2.01 2.946-2.01zM4.214 13.857h1.808l1.34.904v-.033h.033A7.148 7.148 0 0011.513 16h23.974a7.147 7.147 0 004.118-1.272c.008-.005.025.004.033 0v.033l1.34-.904h1.808c.594 0 1.071.477 1.071 1.072 0 .594-.477 1.071-1.071 1.071h-2.143v12.857H6.357V16H4.214a1.068 1.068 0 01-1.071-1.071c0-.595.477-1.072 1.071-1.072zm8.036 5.357a3.765 3.765 0 00-3.75 3.75c0 2.06 1.69 3.75 3.75 3.75s3.75-1.69 3.75-3.75c0-2.059-1.69-3.75-3.75-3.75zm22.5 0a3.765 3.765 0 00-3.75 3.75c0 2.06 1.69 3.75 3.75 3.75s3.75-1.69 3.75-3.75c0-2.059-1.69-3.75-3.75-3.75zm-22.5 2.143c.938 0 1.607.67 1.607 1.607 0 .938-.67 1.607-1.607 1.607-.938 0-1.607-.67-1.607-1.607 0-.937.67-1.607 1.607-1.607zm22.5 0c.938 0 1.607.67 1.607 1.607 0 .938-.67 1.607-1.607 1.607-.938 0-1.607-.67-1.607-1.607 0-.937.67-1.607 1.607-1.607zM6.357 31h5.357v1.071c0 .595-.477 1.072-1.071 1.072H7.429a1.068 1.068 0 01-1.072-1.072V31zm28.929 0h5.357v1.071c0 .595-.477 1.072-1.072 1.072h-3.214a1.068 1.068 0 01-1.071-1.072V31z" fill="#fff" stroke="#fff"/></svg>