<svg width="63" height="61" fill="none" xmlns="http://www.w3.org/2000/svg"><path d="M28.304 21.832h6.237v2.08h-6.237v-2.08zm21.96-6.237L48.184 0h-1.04l1.82 15.595h1.3zM27.247 0h-3.184l-.354 4.238-2.072-.173.34-4.065h-4.183l-1.82 15.594h11.013L27.247 0zm-4.23 12.53l-2.071-.174.343-4.116 2.072.173-.343 4.116-.001.001zM33.52 0h-1.058v15.595h1.317L33.519 0zm-3.136 0h-1.058l-.26 15.595h1.318V0zM46.87 15.595L45.05 0h-4.18l.338 4.065-2.072.173L38.783 0h-3.185l.26 15.594H46.87v.001zM41.556 8.24l.343 4.115-2.072.174-.343-4.116 2.072-.173zM21.11 35.434l-2.072-.174.426-5.112h-5.187L10.76 60.297h6.192l.35-4.203 2.072.174-.336 4.03h7.204l.504-30.149H21.55l-.441 5.285zM19.723 52.08l-2.072-.174.346-4.152 2.072.173-.346 4.153zm.699-8.386l-2.072-.173.345-4.136 2.072.174-.345 4.135zm12.04-13.546v30.15h2.063l-.504-30.15h-1.56zm10.92 0l.426 5.112-2.072.174-.44-5.285H36.1l.502 30.149h7.204l-.336-4.03 2.072-.174.352 4.204h6.19L48.57 30.149h-5.187l-.001-.001zm-1.303 9.412l2.072-.174.345 4.136-2.072.173-.345-4.135zm1.044 12.52l-.346-4.151 2.072-.174.346 4.152-2.072.173zm7.54-21.932l3.517 30.15h2.045l-4.02-30.15h-1.542zM28.32 60.298h2.063v-30.15h-1.56l-.503 30.15zm30.132-22.872h4.158l-1.04-6.237V24.95c0-1.72-1.4-3.119-3.12-3.119h-1.04v2.08h1.04c.574 0 1.04.465 1.04 1.04v6.243l-1.04 6.231.002.001zM1.275 24.951v6.238l-1.04 6.237h4.159l-1.04-6.237V24.95c0-.574.466-1.04 1.04-1.04h1.04v-2.079h-1.04c-1.72 0-3.12 1.4-3.12 3.12z" fill="#fff"/></svg>