<svg width="45" height="45" fill="none" xmlns="http://www.w3.org/2000/svg"><path d="M8.02 6.425h25.715v17.678h3.215V3.21H4.807v38.572h17.678v-3.214H8.021V6.425z" fill="#fff"/><path d="M11.235 9.64H30.52v3.213H11.235V9.64zm0 6.428h16.071v3.214H11.235v-3.214zm0 6.428h9.643v3.214h-9.643v-3.214zM25.4 29l-2.9 5.41c-.307.58-.683 1.02-1.13 1.32-.44.3-.923.45-1.45.45-.387 0-.8-.087-1.24-.26l.47-1.46c.273.08.507.12.7.12a.983.983 0 00.51-.13c.153-.087.293-.223.42-.41L18.06 29h2.09l1.63 3.38L23.47 29h1.93zm3.948 7.14c-.734 0-1.394-.153-1.98-.46a3.522 3.522 0 01-1.37-1.3c-.334-.553-.5-1.18-.5-1.88s.166-1.327.5-1.88a3.45 3.45 0 011.37-1.29c.586-.313 1.246-.47 1.98-.47.64 0 1.216.113 1.73.34.513.227.94.553 1.28.98l-1.26 1.14c-.454-.547-1.004-.82-1.65-.82-.38 0-.72.083-1.02.25a1.77 1.77 0 00-.69.71c-.16.3-.24.647-.24 1.04s.08.743.24 1.05c.166.3.396.533.69.7.3.167.64.25 1.02.25.646 0 1.196-.273 1.65-.82l1.26 1.14c-.34.427-.767.753-1.28.98-.514.227-1.09.34-1.73.34zM39.912 29v7h-1.98v-2.73h-2.7V36h-1.98v-7h1.98v2.63h2.7V29h1.98z" fill="#fff"/></svg>