<svg width="45" height="45" fill="none" xmlns="http://www.w3.org/2000/svg"><g clip-path="url(#clip0_33_819)"><path d="M45 7.14L28.631 0H16.37L0 7.14v6.141h14.704L6.262 42.045H.092V45h44.817v-2.955h-6.17l-8.442-28.764H45V7.14zM18.155 2.955h8.69v7.371h-8.69V2.955zm-.372 10.326h9.434l1.431 4.877-6.148 6.697-6.148-6.697 1.431-4.877zM2.955 10.326v-1.25L15.2 3.733v6.592H2.955zM15.38 21.47l5.114 5.57-9.92 10.807L15.38 21.47zm-4.65 20.576l11.77-12.82 11.77 12.82H10.73zm23.696-4.2l-9.92-10.806 5.114-5.57 4.806 16.377zm7.619-27.519H29.8V3.734l12.245 5.341v1.251z" fill="#01ABBB"/></g><defs><clipPath id="clip0_33_819"><path fill="#fff" d="M0 0h45v45H0z"/></clipPath></defs></svg>