<svg width="45" height="45" fill="none" xmlns="http://www.w3.org/2000/svg"><path d="M43.099 13.08h-7.266a1.92 1.92 0 00-1.91 1.91v1.911h-9.076V6.78h4.684a1.921 1.921 0 001.911-1.91 1.92 1.92 0 00-1.91-1.911h-13.19c-1.048 0-1.911.863-1.911 1.91s.863 1.91 1.91 1.91h4.685v10.133h-10.04V15a1.92 1.92 0 00-1.91-1.91H1.91A1.92 1.92 0 000 15v25.132a1.92 1.92 0 001.91 1.91h7.165a1.92 1.92 0 001.91-1.91V38.22h22.937v1.91c0 1.048.864 1.911 1.91 1.911h7.166c1.047 0 1.91-.863 2.002-1.819v-25.23a1.907 1.907 0 00-1.901-1.91zm-1.911 25.233h-3.445V36.31a1.92 1.92 0 00-1.91-1.91H9.176a1.92 1.92 0 00-1.91 1.91v1.911H3.729V16.819h3.436v1.91a1.92 1.92 0 001.91 1.91h26.666a1.92 1.92 0 001.91-1.91v-1.91h3.537v21.494z" fill="#01ABBB"/></svg>