<svg width="45" height="45" fill="none" xmlns="http://www.w3.org/2000/svg"><path d="M8.02 6.425h25.715v17.678h3.215V3.21H4.807v38.572h17.678v-3.214H8.021V6.425z" fill="#fff"/><path d="M11.235 9.64h19.286v3.213H11.235V9.64zm0 6.428h16.072v3.214H11.235v-3.214zm0 6.428h9.643v3.214h-9.643v-3.214z" fill="#fff"/><path fill-rule="evenodd" clip-rule="evenodd" d="M34.833 31.48a1.452 1.452 0 00-.515-1.98l-3.713-2.193a2.903 2.903 0 00-3.418.341l-2.323 2.09c-1 .9-1.25 2.37-.605 3.55l2.205 4.035a1.45 1.45 0 002.004.558l1.57-.915a1.452 1.452 0 011.864.348l1.335 1.669.267-.209a1.452 1.452 0 012.038.251l1.67 2.142c.71.909 2.144.668 2.518-.422l.142-.412-5.744-5.41a1.452 1.452 0 01-.259-1.788l.964-1.655zm.961-4.48a4.354 4.354 0 011.548 5.942l-.384.658 5.586 5.262c.415.39.562.988.377 1.527l-.445 1.298c-1.122 3.27-5.425 3.992-7.552 1.266l-.777-.997-.254.198a1.45 1.45 0 01-2.027-.237l-1.449-1.812-.488.284a4.355 4.355 0 01-6.013-1.674l-2.205-4.035a5.806 5.806 0 011.211-7.1l2.323-2.09a5.806 5.806 0 016.837-.683L35.794 27zm-7.202 6.866a2.177 2.177 0 100-4.355 2.177 2.177 0 000 4.355z" fill="#fff"/></svg>