<svg width="300" height="90" fill="none" xmlns="http://www.w3.org/2000/svg"><mask id="a" style="mask-type:luminance" maskUnits="userSpaceOnUse" x="0" y="0" width="300" height="90"><path d="M0 0h300v89.285H0V0z" fill="#fff"/></mask><g mask="url(#a)"><path d="M94.517 51.664h2.736l-3.704-9.393 3.704-7.554H94.59l-3.487 7.385v-7.385h-2.662v16.947h2.662V46.46l.824-1.55 2.59 6.755zm8.209-13.049c0-1.21.532-1.67 1.38-1.67.847 0 1.379.46 1.379 1.67v9.152c0 1.21-.532 1.67-1.379 1.67-.848 0-1.38-.46-1.38-1.67v-9.152zm-2.664 8.983c0 2.71 1.429 4.26 4.044 4.26 2.614 0 4.043-1.55 4.043-4.26v-8.812c0-2.712-1.429-4.262-4.043-4.262-2.615 0-4.044 1.55-4.044 4.26v8.814zm15.554-12.88h-3.921v16.946h2.662v-6.367h1.259c2.663 0 3.971-1.476 3.971-4.188v-2.203c0-2.711-1.308-4.188-3.971-4.188zm0 2.42c.848 0 1.308.388 1.308 1.599v2.54c0 1.212-.46 1.6-1.308 1.6h-1.259v-5.738h1.259zm9.684 0h3.026v14.526h2.712V34.717h-8.401v16.947h2.663V37.14zm11.93 1.477c0-1.21.532-1.67 1.379-1.67.848 0 1.381.46 1.381 1.67v9.152c0 1.21-.533 1.67-1.381 1.67-.847 0-1.379-.46-1.379-1.67v-9.152zm-2.663 8.983c0 2.71 1.429 4.26 4.042 4.26 2.615 0 4.044-1.55 4.044-4.26v-8.812c0-2.712-1.429-4.262-4.044-4.262-2.613 0-4.042 1.55-4.042 4.26v8.814zm15.554-12.88h-3.922v16.946h2.663v-6.367h1.259c2.664 0 3.97-1.476 3.97-4.188v-2.203c0-2.711-1.306-4.188-3.97-4.188zm0 2.42c.847 0 1.308.388 1.308 1.599v2.54c0 1.212-.461 1.6-1.308 1.6h-1.259v-5.738h1.259zm12.927-2.42h-3.898l-2.711 16.946h2.446l.459-3.074h3.268l.461 3.074h2.687l-2.712-16.946zm-2.082 3.002l1.283 8.57h-2.565l1.282-8.57zm7.85 13.944h6.973v2.276h2.59v-4.65h-1.162V34.719h-2.712v14.526h-3.026V34.718h-2.663v16.947zm17.796-7.77l1.09-4.165v11.935h2.395V34.717h-2.928l-2.179 6.997-.969 3.728V34.718h-2.372v16.947h2.735l2.228-7.772zm9.412 7.77c.145-.436.241-.702.241-2.082V46.92c0-1.574.533-2.154 1.743-2.154h.92v6.9h2.663v-16.95h-4.018c-2.76 0-3.947 1.283-3.947 3.898v1.331c0 1.744.557 2.882 1.744 3.439-1.333.556-1.768 1.84-1.768 3.607v2.615c0 .822-.023 1.427-.29 2.057h2.712zm2.904-14.525v5.205h-1.04c-.993 0-1.599-.436-1.599-1.792V38.88c0-1.21.412-1.743 1.356-1.743h1.283v.002zm15.922-2.42h-3.923v16.945h2.663v-6.367h1.26c2.663 0 3.97-1.476 3.97-4.188v-2.203c0-2.711-1.307-4.188-3.97-4.188zm0 2.42c.846 0 1.307.387 1.307 1.598v2.54c0 1.212-.461 1.6-1.307 1.6h-1.26v-5.738h1.26zm12.926-2.42h-3.897l-2.712 16.945h2.445l.461-3.074h3.267l.461 3.074h2.687l-2.712-16.946zm-2.082 3l1.283 8.57h-2.565l1.282-8.57zm12.983 2.107c0 1.355-.605 1.791-1.598 1.791h-.799v2.422h.654c1.21 0 1.743.58 1.743 2.153v1.333c0 1.5-.533 1.912-1.381 1.912-.847 0-1.379-.46-1.379-1.67v-2.034h-2.518v1.865c0 2.71 1.356 4.26 3.97 4.26 2.615 0 3.971-1.55 3.971-4.26v-1.333c0-1.719-.532-2.978-1.865-3.559 1.284-.532 1.865-1.67 1.865-3.486v-.436c0-2.711-1.356-4.26-3.971-4.26-2.614 0-3.921 1.5-3.921 4.211v1.26h2.445v-1.38c0-1.21.556-1.67 1.403-1.67.848 0 1.381.411 1.381 1.936v.945zm10.301-5.108h-4.019v16.946h4.188c2.662 0 4.043-1.404 4.043-4.019v-1.38c0-1.791-.557-3.074-1.985-3.63 1.185-.558 1.719-1.672 1.719-3.414v-.606c0-2.615-1.187-3.897-3.946-3.897zm-.17 9.32c1.212 0 1.719.484 1.719 2.058v1.477c0 1.259-.484 1.67-1.38 1.67h-1.526V44.04h1.187zm.097-6.9c.944 0 1.356.533 1.356 1.744v.944c0 1.355-.606 1.791-1.598 1.791h-1.042V37.14h1.284zm12.667 6.755l1.089-4.164v11.935h2.397V34.717h-2.929l-2.179 6.997-.969 3.728V34.718h-2.373v16.947h2.736l2.228-7.772zm6.41-6.754h2.785v14.525h2.663V37.14h2.784v-2.422h-8.232v2.422zm16.184 6.754l1.089-4.164v11.935h2.396V34.717h-2.928l-2.18 6.997-.968 3.728V34.718h-2.373v16.947h2.736l2.228-7.772zm9.411 7.771c.145-.436.242-.702.242-2.082V46.92c0-1.574.533-2.154 1.742-2.154h.921v6.9h2.663v-16.95h-4.019c-2.759 0-3.945 1.283-3.945 3.898v1.331c0 1.744.556 2.882 1.743 3.439-1.333.556-1.769 1.84-1.769 3.607v2.615c0 .822-.023 1.427-.29 2.057h2.712zm2.905-14.525v5.205h-1.04c-.993 0-1.599-.436-1.599-1.792V38.88c0-1.21.412-1.743 1.355-1.743h1.284v.002z" fill="#2B2A29"/><path d="M90.708 60.655c.974 0 1.665.282 2.074.847.42.553.63 1.291.63 2.217v1.37c0 1.01-.234 1.76-.703 2.253-.468.493-1.207.74-2.217.74h-1.568v5.19h-.83V60.656h2.614zm-.216 6.669c.733 0 1.262-.168 1.587-.504.336-.35.505-.908.505-1.677v-1.478c0-.685-.139-1.23-.415-1.64-.265-.409-.751-.613-1.46-.613h-1.785v5.912h1.568zm13.578.307c-.36 0-.685.036-.974.107a1.81 1.81 0 00-.756.343 1.464 1.464 0 00-.469.65c-.108.276-.162.624-.162 1.044v1.983c.004.296-.014.591-.054.884a1.861 1.861 0 01-.217.63h-.865c.136-.212.222-.453.252-.703.036-.276.054-.547.054-.811v-1.963c0-.686.139-1.25.416-1.695.288-.444.756-.74 1.406-.883-1.214-.277-1.822-1.148-1.822-2.614v-1.1c0-.889.211-1.586.632-2.09.42-.505 1.111-.757 2.073-.757h2.631v12.617h-.829v-5.641l-1.316-.001zm-.468-6.22c-.685 0-1.172.193-1.46.578-.289.373-.433.9-.433 1.586v1.19c0 .42.054.77.162 1.045.108.276.259.492.451.649.204.156.451.265.739.325s.618.09.991.09h1.334v-5.462h-1.784zm12.775-.864c.48 0 .89.084 1.225.252.349.157.631.379.847.667.229.277.391.613.488 1.01.107.384.162.804.162 1.261v.325c0 .624-.15 1.171-.451 1.64-.288.457-.709.775-1.262.955.577.169 1.004.487 1.28.956.289.456.433.991.433 1.604v.974c0 .456-.055.882-.162 1.279a2.648 2.648 0 01-.488 1.01 2.336 2.336 0 01-.847.666c-.335.156-.745.234-1.225.234-.481 0-.895-.078-1.244-.234a2.576 2.576 0 01-.847-.667 3.043 3.043 0 01-.487-1.009 5.51 5.51 0 01-.144-1.28v-1.046h.793v1.1c0 .336.03.65.09.937.072.289.187.541.343.757.156.217.354.385.595.505.24.12.534.18.883.18.696 0 1.19-.227 1.478-.685.288-.456.432-1.045.432-1.766v-.973c0-.65-.173-1.166-.522-1.55-.337-.385-.811-.577-1.424-.577h-.703v-.758h.757c.565 0 1.021-.197 1.37-.594.349-.408.522-.907.522-1.495v-.47c0-.72-.144-1.31-.432-1.766-.288-.457-.782-.685-1.478-.685-.697 0-1.196.228-1.496.685-.289.444-.433 1.01-.433 1.695v.683h-.757v-.647c0-.458.048-.878.144-1.263a2.85 2.85 0 01.487-.991c.216-.288.492-.51.829-.667.349-.168.763-.252 1.244-.252zm11.372 9.932l-.631 2.794h-.757l2.758-12.636h1.207l2.811 12.636h-.828l-.631-2.795h-3.929zm.126-.722h3.677l-1.857-8.165-1.82 8.165zm13.385-2.415v5.93h-.829V60.656h.829v5.93h3.93v-5.93h.847v12.618h-.847v-5.931h-3.93zm14.917-6.795c.481 0 .889.084 1.226.252.349.157.631.379.847.667.228.277.391.613.487 1.01.107.384.163.804.163 1.261v1.046h-.795v-1.1a3.838 3.838 0 00-.107-.937 1.968 1.968 0 00-.325-.757 1.608 1.608 0 00-.595-.505c-.241-.12-.535-.18-.883-.18s-.643.06-.882.18c-.237.117-.442.29-.596.505a2.206 2.206 0 00-.343.757 4.684 4.684 0 00-.09.938v6.56c0 .336.031.65.09.937a2.2 2.2 0 00.343.757c.156.206.355.368.596.488.239.12.534.18.882.18s.642-.06.883-.18.439-.282.595-.488c.161-.226.271-.484.325-.757.074-.307.11-.621.107-.937V68.75h.795v1.442c0 .456-.056.882-.163 1.279-.096.385-.259.72-.487 1.01a2.353 2.353 0 01-.847.666c-.337.156-.745.234-1.226.234-.48 0-.895-.078-1.243-.234a2.595 2.595 0 01-.848-.667 3.038 3.038 0 01-.486-1.009 5.403 5.403 0 01-.145-1.28v-6.453c0-.457.048-.877.145-1.262.108-.396.27-.732.486-1.008.226-.286.517-.515.848-.667.348-.17.763-.253 1.243-.253zm11.807 6.795l-.865 1.37v4.56h-.829V60.656h.829v6.669l4.109-6.67h.866l-3.605 5.877 3.839 6.742h-.865l-3.479-5.931zm11.578-3.605a4.72 4.72 0 01.162-1.262c.108-.396.27-.732.487-1.008.23-.29.527-.519.866-.667.348-.17.762-.253 1.243-.253.48 0 .896.084 1.243.252.361.157.657.379.884.667.228.277.396.613.504 1.01.109.384.163.804.163 1.261v6.453c0 .457-.054.883-.163 1.28-.108.385-.276.72-.504 1.01a2.487 2.487 0 01-.884.666c-.347.156-.763.234-1.243.234-.481 0-.895-.078-1.243-.234a2.531 2.531 0 01-.866-.667 3.02 3.02 0 01-.487-1.009 4.932 4.932 0 01-.162-1.28v-6.453zm.83 6.507c0 .685.144 1.257.432 1.712.3.445.799.667 1.496.667s1.196-.222 1.496-.667c.313-.456.468-1.027.468-1.712v-6.561c0-.685-.155-1.25-.468-1.694-.3-.457-.799-.685-1.496-.685s-1.196.228-1.496.685c-.288.444-.432 1.01-.432 1.695v6.56zm16.85-11.932c-.012.492-.187.872-.523 1.136-.336.264-.77.395-1.298.395-.517 0-.943-.131-1.279-.395-.338-.265-.511-.644-.523-1.137h.577c.012.362.138.62.377.776.241.156.524.234.848.234.337 0 .625-.078.865-.234.241-.156.373-.414.397-.775h.559zm-3.822 14.96h-.901V60.656h.757v10.797l1.587-4.488 2.289-6.308h.991v12.617h-.758V62.115l-3.965 11.158zm20.981-9.535c0-.457.053-.877.161-1.262.109-.396.27-.732.487-1.008.23-.29.527-.519.865-.667.348-.17.764-.253 1.244-.253s.895.084 1.244.252c.36.157.654.379.883.667.229.277.396.613.505 1.01.108.384.162.804.162 1.261v6.453c0 .457-.054.883-.162 1.28-.109.385-.276.72-.505 1.01a2.5 2.5 0 01-.883.666c-.349.156-.764.234-1.244.234s-.896-.078-1.244-.234a2.538 2.538 0 01-.865-.667 3.04 3.04 0 01-.487-1.009 4.805 4.805 0 01-.161-1.28v-6.453zm.828 6.507c0 .685.144 1.257.433 1.712.3.445.799.667 1.496.667s1.196-.222 1.496-.667c.312-.456.469-1.027.469-1.712v-6.561c0-.685-.157-1.25-.469-1.694-.3-.457-.799-.685-1.496-.685s-1.196.228-1.496.685c-.289.444-.433 1.01-.433 1.695v6.56zm14.76-4.218c.972 0 1.706.217 2.199.65.493.432.739 1.153.739 2.162v1.424c0 .962-.222 1.706-.667 2.235-.433.517-1.142.776-2.127.776h-2.776V60.655h5.101v.757h-4.271v4.614h1.802zm.144 6.49c.709 0 1.213-.187 1.515-.56.3-.372.449-.919.449-1.64v-1.532c0-.769-.179-1.292-.54-1.568-.349-.277-.872-.414-1.568-.414h-1.802v5.713h1.946zm12.739-11.104l-.324 8.778c-.023.433-.067.836-.126 1.207a2.638 2.638 0 01-.308.975 1.774 1.774 0 01-.666.666c-.276.156-.649.24-1.117.252h-.163v-.757c.361 0 .637-.06.83-.18.204-.132.354-.3.45-.504.108-.217.174-.464.199-.74.036-.288.06-.589.072-.9l.377-9.554h4.706v12.618h-.848V61.412h-3.082zm12.643 9.067l-.631 2.794h-.757l2.758-12.636h1.209l2.812 12.636h-.83l-.631-2.795h-3.93zm.127-.722h3.677l-1.856-8.165-1.821 8.165zm15.224-9.21c.479 0 .889.084 1.224.252.349.157.631.379.848.667.229.277.391.613.487 1.01.108.384.162.804.162 1.261v1.046h-.793v-1.1a3.91 3.91 0 00-.108-.937 1.949 1.949 0 00-.325-.757 1.609 1.609 0 00-.594-.505c-.241-.12-.535-.18-.883-.18-.349 0-.643.06-.884.18a1.61 1.61 0 00-.595.505 2.202 2.202 0 00-.342.757 4.54 4.54 0 00-.09.938v6.56c0 .336.029.65.09.937.072.289.186.541.342.757.156.206.355.368.595.488.241.12.535.18.884.18.348 0 .642-.06.883-.18s.438-.282.594-.488a1.94 1.94 0 00.325-.757c.071-.288.108-.6.108-.937V68.75h.793v1.442c0 .456-.054.882-.162 1.279a2.632 2.632 0 01-.487 1.01 2.352 2.352 0 01-.848.666c-.335.156-.745.234-1.224.234-.482 0-.895-.078-1.245-.234a2.576 2.576 0 01-.847-.667 3.065 3.065 0 01-.487-1.009 5.51 5.51 0 01-.144-1.28v-6.453c0-.457.049-.877.144-1.262.109-.396.272-.732.487-1.008.228-.29.51-.511.847-.667.35-.17.763-.253 1.245-.253zm12.473 12.726V61.412h-2.578v-.757h5.984v.757h-2.577v11.86h-.829zm13.622-5.858l-2.055 5.858h-.902V60.655h.757v10.798l1.46-4.164 2.416-6.633h.991v12.617h-.757V62.115l-1.91 5.3z" fill="#404040"/><path d="M15.729 46.661l7.933-9.098v44.43l-7.932-6.797-.001-28.535z" fill="url(#paint0_linear_33_737)"/><path d="M25.043 35.714l7.933-9.523v59.552h-7.933v-50.03z" fill="url(#paint1_linear_33_737)"/><path d="M42.325 10.88L34.498.893v84.768h7.827V10.88z" fill="url(#paint2_linear_33_737)"/><path d="M51.716 22.044l-7.825-9.954v71.973l7.825-.876V22.045z" fill="url(#paint3_linear_33_737)"/><path d="M61.313 33.574l-7.997-9.888v60.377l7.997-3.65V33.575z" fill="url(#paint4_linear_33_737)"/><path d="M28.951 12.61C11.513 17.416-.886 33.81.05 52.627a39.314 39.314 0 0010.21 24.589c13.581 13.207 35.484 14.688 51.065 3.758v-6.885c-11.63 11.049-34.69 11.255-47.067-.581a33.884 33.884 0 01-8.762-21.151C4.71 36.575 14.619 17.117 28.95 12.61z" fill="url(#paint5_linear_33_737)"/><path d="M61.664 21.15c20.216 20.792 16.13 44.265 1.442 58.55v-7.452c9.685-13.811 10.033-37.43-1.442-51.1v.002z" fill="url(#paint6_linear_33_737)"/></g><defs><linearGradient id="paint0_linear_33_737" x1="10.991" y1="51.732" x2="33.456" y2="70.554" gradientUnits="userSpaceOnUse"><stop offset=".077" stop-color="#A1A7AA"/><stop offset="1" stop-color="#535150"/></linearGradient><linearGradient id="paint1_linear_33_737" x1="20.305" y1="45.53" x2="48.075" y2="62.577" gradientUnits="userSpaceOnUse"><stop offset=".077" stop-color="#A1A7AA"/><stop offset="1" stop-color="#535150"/></linearGradient><linearGradient id="paint2_linear_33_737" x1="34.58" y1="10.056" x2="35.493" y2="84.051" gradientUnits="userSpaceOnUse"><stop stop-color="#00ECFF"/><stop offset="1" stop-color="#018190"/></linearGradient><linearGradient id="paint3_linear_33_737" x1="45.585" y1="14.489" x2="44.757" y2="83.249" gradientUnits="userSpaceOnUse"><stop stop-color="#00ECFF"/><stop offset="1" stop-color="#018A9A"/></linearGradient><linearGradient id="paint4_linear_33_737" x1="55.048" y1="14.947" x2="54.161" y2="79.455" gradientUnits="userSpaceOnUse"><stop stop-color="#00ECFF"/><stop offset="1" stop-color="#019AAA"/></linearGradient><linearGradient id="paint5_linear_33_737" x1="-.023" y1="30.357" x2="-11.771" y2="63.386" gradientUnits="userSpaceOnUse"><stop offset=".077" stop-color="#A1A7AA"/><stop offset="1" stop-color="#707070"/></linearGradient><linearGradient id="paint6_linear_33_737" x1="79.673" y1="50.525" x2="41.824" y2="80.779" gradientUnits="userSpaceOnUse"><stop stop-color="#00ECFF"/><stop offset="1" stop-color="#007685"/></linearGradient></defs></svg>