<svg width="50" height="50" fill="none" xmlns="http://www.w3.org/2000/svg"><path d="M46.478 12.396c0-4.013-5.373-7.039-12.5-7.039-7.126 0-12.5 3.026-12.5 7.038 0 .036.008.07.009.105h-.009v5.357h3.571v-.442c2.235 1.26 5.362 2.018 8.929 2.018 3.29 0 6.198-.651 8.384-1.74.34.35.545.699.545 1.004 0 1.38-3.561 3.466-8.929 3.466h-3.57v3.571h3.57c3.291 0 6.2-.65 8.386-1.74.34.35.542.698.542 1.006 0 1.38-3.56 3.466-8.928 3.466l-1.265.006c-.777.007-1.529.014-2.262-.005l-.088 3.57c.393.01.79.013 1.196.013.387 0 .78-.003 1.181-.006l1.237-.006c3.294 0 6.203-.652 8.39-1.743.34.353.539.704.539 1.007 0 1.38-3.561 3.467-8.929 3.467h-3.57v3.571h3.57c3.293 0 6.202-.652 8.39-1.742.34.352.539.703.539 1.007 0 1.38-3.561 3.466-8.929 3.466h-3.57v3.572h3.57c7.127 0 12.5-3.026 12.5-7.038 0-.034-.004-.071-.005-.105h.005v-25h-.009c.002-.035.01-.07.01-.104zm-21.429 0c0-1.38 3.561-3.467 8.929-3.467s8.929 2.086 8.929 3.466c0 1.38-3.561 3.466-8.929 3.466s-8.929-2.086-8.929-3.466z" fill="#fff"/><path d="M16.12 17.857c-7.126 0-12.5 3.025-12.5 7.038 0 .036.008.07.01.105h-.01v12.5c0 4.012 5.374 7.038 12.5 7.038 7.127 0 12.5-3.026 12.5-7.038V25h-.008c0-.035.009-.07.009-.105 0-4.012-5.374-7.038-12.5-7.038zm-8.928 13.34c0-.308.202-.656.54-1.006 2.188 1.09 5.097 1.742 8.389 1.742 3.29 0 6.197-.651 8.384-1.74.339.35.544.699.544 1.004 0 1.38-3.56 3.466-8.928 3.466s-8.93-2.086-8.93-3.465zm8.929-9.768c5.367 0 8.928 2.086 8.928 3.466 0 1.38-3.56 3.466-8.928 3.466s-8.93-2.086-8.93-3.466c0-1.38 3.562-3.466 8.93-3.466zm0 19.538c-5.368 0-8.93-2.087-8.93-3.467 0-.307.205-.656.543-1.006 2.187 1.09 5.095 1.741 8.387 1.741 3.29 0 6.199-.65 8.385-1.74.34.35.543.698.543 1.006 0 1.38-3.56 3.466-8.928 3.466z" fill="#fff"/></svg>