<svg width="1158" height="480" fill="none" xmlns="http://www.w3.org/2000/svg"><path d="M246.76 345.528l15.302-190.117 64.454-79.292 97.84-23.649c110.36 6.028 164.149 27.822 179.915 34.314 104.611 17.435 245.451 61.672 302.795 81.611l-5.564 44.515 36.168 1.855 218.87 73.728-2.79 188.725h-79.29l-.93 1.855h-6.49l-1.85-1.391h-73.731v-17.157h-14.838v12.983H869.043v4.174h-76.974v-4.174h-42.66v-2.318l-55.18-2.319v2.319c-66-2.01-199.762-5.843-206.81-5.101-24.483 1.855-51.007-2.937-61.208-5.564l-66.309-12.52v2.782l-22.257-5.101-124.271-54.252 33.386-45.906z" fill="#00727C" stroke="#404040"/><path d="M344.136 419.256l-130.763-26.895-8.346 26.895 133.545 26.431 5.564-26.431z" fill="#00727C" stroke="#404040"/><path d="M778.622 252.325l-389.506.927-16.694 77.438h4.174v8.346h-6.492l4.637 6.028 480.391-2.782v-76.974l-76.51-1.391v-11.592z" fill="#E6E6E6" stroke="#404040"/><path d="M49.225 11.201c16.693-8.16 40.65-3.4 50.543 0-8.965 70.637-27.73 214.414-31.068 224.43-24.854-2.967-55.49-18.857-67.7-26.43 4.173-16.539 16.23-49.616 31.068-49.616 38.95 7.419 39.878-25.04 36.632-29.213-2.597-3.339-4.792-32.923-5.564-47.297-11.748-7.729-36.633-24.762-42.197-31.068-5.564-6.306-7.265-34.468-7.42-47.761L24.186 1c5.719 3.4 18.733 10.201 25.04 10.201z" fill="#01ABBB" stroke="#404040"/><path d="M150.311 20.476l-50.543-9.274-30.14 224.893 50.079 12.984 30.604-228.603z" fill="#01ABBB" stroke="#404040"/><path d="M318.633 70.09c-6.677 1.485-115.306-32.458-168.322-49.615L120.17 249.542l91.349 24.112 25.04-106.65 47.297 14.374 4.637-16.229-7.419-2.319 10.665-36.168 10.201 2.782c5.255-18.084 16.693-55.273 16.693-59.353z" fill="#01ABBB" stroke="#404040"/><path d="M422.502 58.035l1.855-5.101c-34.314 1.855-83.93-7.42-88.567-8.347-3.709-.742-8.346 2.164-10.201 3.71l-23.649 81.147 97.841 29.677 19.939-91.349h-13.447v-9.737h16.229z" fill="#E6E6E6" stroke="#404040"/><path d="M391.434 199.463l8.347-40.342-79.293-23.648-12.52 44.051c22.721 6.492 69.277 20.217 73.728 21.33 5.565 2.968 8.811.309 9.738-1.391z" fill="#E6E6E6" stroke="#404040"/><path d="M291.739 126.662l28.749 8.347c-3.555 13.292-10.294 40.805-12.52 44.515-3.709.371-6.801-6.956-7.419-10.665l-19.475-6.492 10.665-35.705z" fill="#64D3DD" stroke="#404040"/><path d="M292.666 183.697l10.665 4.173-22.721 106.651-69.091-20.867 25.04-106.187 48.688 14.375-1.855 8.347 6.492 1.854 2.782-8.346z" fill="#E6E6E6" stroke="#404040"/><path d="M334.863 198.072l-31.532-10.201-9.737 45.442 31.995 9.274 9.274-44.515z" fill="#01ABBB" stroke="#404040"/><path d="M382.16 211.055l-46.833-12.983-9.738 44.515 52.861 16.693c2.474-10.82 7.698-33.85 8.811-39.414 1.113-5.565-2.937-8.192-5.101-8.811z" fill="#E6E6E6" stroke="#404040"/><path d="M286.638 266.699l7.419-33.386 84.393 25.967-7.419 33.85-84.393-26.431z" fill="#01ABBB" stroke="#404040"/><path d="M280.61 294.521l6.028-27.822 84.394 26.431-6.492 27.358-83.93-25.967z" fill="#64D3DD" stroke="#404040"/><path d="M245.833 283.856l118.707 36.632-4.637 19.939-88.103-21.33-6.492 28.286-35.704-7.883 16.229-55.644z" fill="#01ABBB" stroke="#404040"/><path d="M271.8 319.097l88.102 21.33-.927 5.565-81.147-17.157-18.085 72.8-46.369-9.737 16.229-52.862 35.705 8.347 6.492-28.286z" fill="#01ABBB" stroke="#404040"/><path d="M323.27 338.573l-45.442-9.738-7.883 32.923 45.906 10.201 7.419-33.386z" fill="#E6E6E6" stroke="#404040"/><path d="M358.975 345.991l-35.705-7.419-7.419 33.387 36.169 7.882 6.955-33.85z" fill="#E6E6E6" stroke="#404040"/><path d="M259.744 401.635l10.201-39.878 45.906 10.202-8.81 39.414-47.297-9.738z" fill="#01ABBB" stroke="#404040"/><path d="M352.02 379.841l-36.169-7.883-8.81 39.415 37.096 7.883 7.883-39.415zM488.347 72.873c-32.459-7.419-40.496-5.719-57.499-5.564l-16.693 72.337 126.126 27.358 16.693-77.901-59.817-13.447-1.855 5.1h-6.955v-7.883z" fill="#01ABBB" stroke="#404040"/><path d="M389.579 253.252l24.112-113.606 126.59 27.358-18.548 82.538-.927 3.71H389.579z" fill="#E6E6E6" stroke="#404040"/><path d="M581.55 95.131l-25.039-5.564-35.241 163.685h43.587l31.532-146.528-7.42-1.855-1.391 1.855-7.882-1.855 1.854-9.738z" fill="#01ABBB" stroke="#404040"/><path d="M734.571 126.662L601.489 99.304l-.927 8.346-4.637-.927-30.604 146.529 213.765-.928v-38.487l83.002-1.855c2.473-10.201 7.79-33.015 9.274-42.66-72.337-27.451-115.77-38.332-128.445-40.342l-2.782 8.811-6.955-1.391 1.391-9.738z" fill="#01ABBB" stroke="#404040"/><path d="M779.086 213.374l81.611-1.392h20.866l8.347 8.347 35.241 1.855v44.979l-146.065-3.246v-50.543zm146.065 53.789l-70.018-1.391v76.974h67.7l4.637-4.173V280.61l-1.855-1.854-.464-11.593zm15.301 76.047l-2.318-5.565v-50.079h123.346v7.419h7.88v3.246h1.86v30.604h-5.57v8.81h5.57l-5.57 5.565H940.452z" fill="#01ABBB" stroke="#404040"/><path d="M939.525 277.828l-1.391-63.527c52.305-2.596 116.386 3.555 141.896 6.956v64.918h-10.21v1.854H936.279v-10.201h3.246z" fill="#FFB573" stroke="#404040"/><path d="M1080.03 286.175v-64.918c29.3 10.758 63.52 34.777 76.97 45.442v21.794h-11.13v61.672h-65.84v-51.007h2.78v-3.246h9.27v-9.737h-12.05z" fill="#01ABBB" stroke="#404040"/><path d="M375.668 354.802l7.419 7.883-12.056 45.442-14.838-3.246 9.738-46.37 4.173-3.709h5.564z" fill="#64D3DD" stroke="#404040"/><path d="M383.088 353.875v8.81l-19.476 75.119 59.354 12.056 13.911-95.985h-53.789z" fill="#01ABBB" stroke="#404040"/><path d="M556.047 352.947l-119.171.928c-4.328 29.367-13.169 89.679-13.911 95.985 19.29 4.823 45.443 6.028 56.108 6.028l75.119 1.391 1.855-104.332z" fill="#E6E6E6" stroke="#404040"/><path d="M617.255 352.947h-61.208l-1.855 104.332 43.588.928v-11.129h9.274v12.056h10.201V352.947z" fill="#01ABBB" stroke="#404040"/><path d="M687.737 352.947h-70.482v106.651h53.325v2.782h39.878v-2.318h26.431l-1.391-107.115h-38.951v10.202h-8.81v-10.202z" fill="#E6E6E6" stroke="#404040"/><path d="M914.022 353.411l-178.524-.464 1.391 107.115 65.845 2.318 9.738-12.056v-41.269h101.55v-55.644z" fill="#01ABBB" stroke="#404040"/><path d="M940.916 376.596v-23.185h121.024v17.62h7.88v72.801l-4.17 3.709H928.396l-10.665-10.201v-28.286h-3.71v-32.458h26.895z" fill="#01ABBB" stroke="#404040"/><path d="M1145.87 350.165h-65.84v52.861h65.84v-52.861z" fill="#E6E6E6" stroke="#404040"/><path d="M1080.03 424.357V403.49h66.3v20.867h-66.3z" fill="#01ABBB" stroke="#404040"/><path d="M1080.03 471.19v-46.833h66.3v46.833h-66.3z" fill="#E6E6E6" stroke="#404040"/></svg>