<svg width="22" height="22" fill="none" xmlns="http://www.w3.org/2000/svg"><g clip-path="url(#clip0_33_960)"><path d="M13.796 4.583a4.583 4.583 0 013.62 3.621M13.797.917a8.25 8.25 0 017.288 7.278m-.917 7.315v2.75a1.833 1.833 0 01-1.998 1.833 18.14 18.14 0 01-7.911-2.814 17.876 17.876 0 01-5.5-5.5 18.141 18.141 0 01-2.815-7.947 1.833 1.833 0 011.825-1.999h2.75A1.833 1.833 0 018.35 3.41c.116.88.331 1.744.642 2.576A1.833 1.833 0 018.58 7.92L7.416 9.084a14.667 14.667 0 005.5 5.5l1.164-1.164a1.833 1.833 0 011.934-.412c.832.31 1.696.525 2.576.641a1.833 1.833 0 011.577 1.861z" stroke="#01ABBB" stroke-width="2" stroke-linecap="round" stroke-linejoin="round"/></g><defs><clipPath id="clip0_33_960"><path fill="#fff" d="M0 0h22v22H0z"/></clipPath></defs></svg>