<svg width="81" height="45" fill="none" xmlns="http://www.w3.org/2000/svg"><path d="M80.029 16.912c0-.156-.194-.256-.352-.183l-1.498.684a.934.934 0 00-.54.632l-.316 1.47L52.82 23.57c-2.195-4.043-6.021-7.404-10.02-8.532L41.31 1.417c-.036-.325-.326-.572-.672-.572h-1.302c-.346 0-.636.247-.671.572l-1.49 13.621c-3.996 1.127-7.82 4.484-10.016 8.524L2.704 19.515l-.316-1.47a.927.927 0 00-.538-.632l-1.5-.685c-.159-.072-.351.028-.351.184v6.133c0 .834.58 1.587 1.471 1.91l4.32 1.565a3.882 3.882 0 00-1.08 2.676c0 2.22 1.906 4.02 4.258 4.02 2.345 0 4.246-1.79 4.258-4l2.305.835a3.897 3.897 0 00-1.235 2.832c0 2.22 1.906 4.02 4.258 4.02 2.351 0 4.258-1.8 4.258-4.02 0-.066-.002-.13-.005-.195l2.91 1.054c1.752 6.115 8.205 10.66 14.27 10.66 6.059 0 12.504-4.535 14.264-10.638l2.916-1.057a4.083 4.083 0 00-.004.175c0 2.221 1.906 4.021 4.258 4.021 2.352 0 4.258-1.8 4.258-4.02a3.894 3.894 0 00-1.221-2.818l2.292-.83c.022 2.202 1.919 3.982 4.257 3.982 2.351 0 4.258-1.8 4.258-4.021a3.88 3.88 0 00-1.067-2.66l4.36-1.58c.891-.325 1.472-1.077 1.472-1.912l-.001-6.132zM8.967 30.932c-1.015 0-1.839-.777-1.839-1.736 0-.815.596-1.497 1.398-1.684l1.965.712c.198.278.314.612.314.972 0 .959-.823 1.736-1.838 1.736zm9.586 3.686c-1.016 0-1.839-.777-1.839-1.735 0-.96.823-1.736 1.839-1.736l1.224.443c.376.318.614.778.614 1.293 0 .958-.823 1.735-1.838 1.735zm20.13-4.586a24.623 24.623 0 01-6.397-1.198c-1.634-.535-2.894-2.438-2.894-4 0-.335.058-.627.165-.874.39-.91 1.443-1.212 2.73-.791a24.53 24.53 0 006.395 1.198l.001 5.665zm9.003-1.198a24.594 24.594 0 01-6.396 1.199v-5.666a24.537 24.537 0 006.396-1.198c1.288-.422 2.345-.118 2.733.8.105.244.161.533.161.865 0 1.561-1.26 3.465-2.894 4zm13.734 5.784c-1.016 0-1.839-.777-1.839-1.735 0-.497.222-.943.575-1.26l1.31-.474c.994.023 1.792.79 1.792 1.734 0 .958-.823 1.735-1.838 1.735zm9.585-3.686c-1.015 0-1.838-.777-1.838-1.736 0-.35.11-.674.298-.946l2.014-.73c.785.198 1.365.872 1.365 1.676 0 .959-.823 1.736-1.839 1.736z" fill="#fff"/></svg>