<svg width="78" height="45" fill="none" xmlns="http://www.w3.org/2000/svg"><g clip-path="url(#clip0_33_868)"><path fill-rule="evenodd" clip-rule="evenodd" d="M.68 33.534l7.403-8.37H2.745l4.44-4.983 5.292.015 7.318-8.273h-2.442l3.931-3.61h1.705l6.537-7.39h5.908l-6.105 7.39h17.35L40.66.923h5.908l6.537 7.39h1.374l4.262 3.61h-2.44l7.442 8.414 3.911.011 4.657 4.815h-4.3l9.248 10.454a60.989 60.989 0 01-6.068 8.804H7.886C5.188 41.177 2.768 37.524.68 33.534zm48.94-21.61H26.346l-6.85 8.291 36.96.103-6.837-8.395v.001zM5.463 37.2l9.944-12.036h44.996L70.206 37.2H5.463h.001z" fill="#fff"/></g><defs><clipPath id="clip0_33_868"><path fill="#fff" d="M0 0h78v45H0z"/></clipPath></defs></svg>