<svg width="40" height="38" fill="none" xmlns="http://www.w3.org/2000/svg"><path d="M11.25 2.25C4.836 2.25 0 4.972 0 8.584c0 .032.007.062.008.094H0v11.25c0 3.611 4.836 6.334 11.25 6.334S22.5 23.54 22.5 19.928V8.678h-.008c.001-.031.008-.062.008-.094 0-3.611-4.836-6.334-11.25-6.334zM3.214 14.256c0-.277.182-.59.487-.906 1.968.981 4.586 1.568 7.549 1.568 2.961 0 5.578-.586 7.546-1.567.305.316.49.63.49.905 0 1.241-3.205 3.12-8.036 3.12-4.83 0-8.036-1.878-8.036-3.12zm8.036-8.792c4.83 0 8.036 1.878 8.036 3.12 0 1.242-3.205 3.12-8.036 3.12-4.83 0-8.036-1.878-8.036-3.12 0-1.242 3.205-3.12 8.036-3.12zm0 17.584c-4.83 0-8.036-1.877-8.036-3.12 0-.276.183-.59.488-.905 1.969.98 4.586 1.567 7.548 1.567 2.962 0 5.58-.586 7.547-1.567.306.316.488.63.488.906 0 1.242-3.204 3.12-8.035 3.12z" fill="#fff"/><path d="M33.26 13.636C33.26 6.105 27.155 0 19.624 0l.55.551a13.637 13.637 0 013.995 9.642v14.97H18L28.714 37.5 39.43 25.162h-6.17V13.636zm-4.546 18.417l-2.883-3.32h1.91v-18.54c0-.946-.076-1.88-.225-2.797a10.016 10.016 0 012.173 6.24v15.097h1.908l-2.883 3.32z" fill="#fff"/></svg>