<svg width="49" height="44" fill="none" xmlns="http://www.w3.org/2000/svg"><path d="M48.075 6.334C48.075 2.723 43.24 0 36.825 0s-11.25 2.723-11.25 6.334c0 .032.007.063.008.094h-.008v4.822h3.214v-.399c2.012 1.135 4.826 1.817 8.036 1.817 2.962 0 5.578-.586 7.546-1.566.305.315.49.629.49.904 0 1.241-3.205 3.12-8.036 3.12h-3.213v3.213h3.213c2.962 0 5.58-.585 7.547-1.566.306.315.489.628.489.905 0 1.242-3.205 3.12-8.036 3.12l-1.138.005c-.7.006-1.376.013-2.036-.005l-.08 3.213c.354.01.712.012 1.077.012.348 0 .703-.002 1.063-.005l1.114-.005c2.963 0 5.582-.587 7.55-1.569.306.318.485.633.485.906 0 1.243-3.205 3.12-8.036 3.12h-3.213v3.215h3.213c2.964 0 5.582-.587 7.55-1.569.307.317.486.633.486.906 0 1.243-3.205 3.12-8.036 3.12h-3.213v3.215h3.213c6.414 0 11.25-2.723 11.25-6.335 0-.03-.004-.063-.005-.094h.005v-22.5h-.008c.002-.031.01-.062.01-.094zm-19.286 0c0-1.242 3.205-3.12 8.036-3.12 4.831 0 8.036 1.878 8.036 3.12 0 1.242-3.205 3.12-8.036 3.12-4.83 0-8.036-1.878-8.036-3.12z" fill="#fff"/><path d="M16.07 5.208L0 16.458v27.303h32.146V16.458L16.071 5.208zm12.86 35.34H3.211V18.133l12.859-9 12.858 9V40.55z" fill="#fff"/><path d="M8.037 32.538h16.07v3.212H8.038v-3.212z" fill="#fff"/></svg>