<svg width="74" height="74" fill="none" xmlns="http://www.w3.org/2000/svg"><g clip-path="url(#clip0_33_873)"><mask id="a" style="mask-type:luminance" maskUnits="userSpaceOnUse" x="0" y="0" width="74" height="74"><path d="M0 0h74v74H0V0z" fill="#fff"/></mask><g mask="url(#a)" fill="#fff"><path d="M17.266 48.717c-4.08 0-7.4 3.318-7.4 7.4 0 4.08 3.32 7.4 7.4 7.4 4.081 0 7.4-3.32 7.4-7.4 0-4.082-3.319-7.4-7.4-7.4zm0 12.333a4.938 4.938 0 01-4.933-4.933 4.938 4.938 0 014.933-4.934 4.938 4.938 0 014.934 4.934 4.938 4.938 0 01-4.934 4.933zM59.2 48.717c-4.08 0-7.4 3.318-7.4 7.4 0 4.08 3.32 7.4 7.4 7.4 4.082 0 7.4-3.32 7.4-7.4 0-4.082-3.318-7.4-7.4-7.4zm0 12.333a4.938 4.938 0 01-4.933-4.933 4.938 4.938 0 014.934-4.934 4.938 4.938 0 014.933 4.934A4.938 4.938 0 0159.2 61.05z"/><path d="M73.803 41.883l-11.1-17.267a1.234 1.234 0 00-1.037-.566H48.1c-.683 0-1.234.552-1.234 1.233v30.833c0 .682.551 1.234 1.233 1.234h4.934v-2.467h-3.7V26.516h11.66l10.54 16.396v11.97h-6.167v2.468h7.4c.682 0 1.233-.551 1.233-1.233V42.55c0-.236-.067-.47-.196-.667z"/><path d="M71.534 40.083l-7.4-8.633v-2.467h-11.1c-.682 0-1.233.553-1.233 1.234v11.1c0 .682.551 1.233 1.233 1.233h18.5v-2.467zM48.1 15.417H1.233c-.68 0-1.233.552-1.233 1.233v39.467c0 .682.553 1.233 1.233 1.233H11.1v-2.467H2.467h44.4-23.434v2.467H48.1c.682 0 1.233-.551 1.233-1.233V16.65c0-.68-.551-1.233-1.233-1.233z"/><path d="M8.632 49.95h-7.4v2.467h7.4V49.95zm38.234 0H25.9v2.467h20.967l-.001-2.467zm25.901 0h-4.933v2.467h4.933V49.95zM18.5 54.883h-2.467v2.467H18.5v-2.467zm41.934 0h-2.467v2.467h2.467v-2.467zM22.2 10.483H4.934v2.467H22.2v-2.467zm-19.733 0H0v2.467h2.467v-2.467z"/></g></g><defs><clipPath id="clip0_33_873"><path fill="#fff" d="M0 0h74v74H0z"/></clipPath></defs></svg>