<svg width="45" height="45" fill="none" xmlns="http://www.w3.org/2000/svg"><g clip-path="url(#clip0_33_836)" fill="#01ABBB"><path d="M8.855 28.85l-4.852 6.494a5.999 5.999 0 00-1.195 3.609A6.054 6.054 0 008.855 45a6.054 6.054 0 006.047-6.047 6 6 0 00-1.197-3.611l-4.85-6.492zm0 13.367a3.267 3.267 0 01-3.264-3.264c0-.708.223-1.381.643-1.945l2.62-3.508 2.62 3.506a3.267 3.267 0 01-2.619 5.211zm33.338-31.083V8.351h-6.03V6.495h-5.365V2.784h5.828V0h-14.44v2.784h5.828v3.71H22.65v1.857h-9.283c-5.593 0-10.143 4.55-10.143 10.143v7.217h11.264v-6.096h8.162v1.855h13.514v-1.855h6.03V16.83h-6.03v-5.697h6.03zm-28.827 5.697c-.917 0-1.663.746-1.663 1.663v4.433H6.006v-4.433c0-4.058 3.302-7.36 7.36-7.36h9.283v5.697h-9.283zm20.013 1.856h-7.946V9.278h7.946v9.409z"/></g><defs><clipPath id="clip0_33_836"><path fill="#fff" d="M0 0h45v45H0z"/></clipPath></defs></svg>