<svg width="50" height="50" viewBox="0 0 50 50" fill="none" xmlns="http://www.w3.org/2000/svg">
<g clip-path="url(#clip0_33_821)">
<path d="M42.1877 34.5968V15.403C43.2537 15.1297 44.2284 14.5791 45.0128 13.8073C45.7972 13.0354 46.3635 12.0697 46.654 11.0083C46.9446 9.94683 46.9491 8.8274 46.6671 7.76364C46.3852 6.69988 45.8267 5.72966 45.0486 4.95149C44.2704 4.17333 43.3002 3.61491 42.2364 3.33295C41.1727 3.05098 40.0532 3.0555 38.9918 3.34606C37.9303 3.63661 36.9647 4.20284 36.1928 4.98727C35.4209 5.7717 34.8704 6.7464 34.597 7.81241H15.4033C15.1299 6.7464 14.5794 5.7717 13.8075 4.98727C13.0356 4.20284 12.07 3.63661 11.0085 3.34606C9.94708 3.0555 8.82765 3.05098 7.76389 3.33295C6.70012 3.61491 5.72991 4.17333 4.95174 4.95149C4.17357 5.72966 3.61516 6.69988 3.33319 7.76364C3.05122 8.8274 3.05575 9.94683 3.3463 11.0083C3.63685 12.0697 4.20309 13.0354 4.98752 13.8073C5.77195 14.5791 6.74664 15.1297 7.81265 15.403V34.5968C6.74664 34.8701 5.77195 35.4207 4.98752 36.1926C4.20309 36.9644 3.63685 37.9301 3.3463 38.9915C3.05575 40.053 3.05122 41.1724 3.33319 42.2362C3.61516 43.2999 4.17357 44.2702 4.95174 45.0483C5.72991 45.8265 6.70012 46.3849 7.76389 46.6669C8.82765 46.9488 9.94708 46.9443 11.0085 46.6538C12.07 46.3632 13.0356 45.797 13.8075 45.0125C14.5794 44.2281 15.1299 43.2534 15.4033 42.1874H34.597C34.8704 43.2534 35.4209 44.2281 36.1928 45.0125C36.9647 45.797 37.9303 46.3632 38.9918 46.6538C40.0532 46.9443 41.1727 46.9488 42.2364 46.6669C43.3002 46.3849 44.2704 45.8265 45.0486 45.0483C45.8267 44.2702 46.3852 43.2999 46.6671 42.2362C46.9491 41.1724 46.9446 40.053 46.654 38.9915C46.3635 37.9301 45.7972 36.9644 45.0128 36.1926C44.2284 35.4207 43.2537 34.8701 42.1877 34.5968ZM40.6252 6.24991C41.2432 6.24991 41.8474 6.43318 42.3613 6.77656C42.8752 7.11994 43.2758 7.608 43.5123 8.17902C43.7488 8.75004 43.8107 9.37837 43.6901 9.98456C43.5695 10.5908 43.2719 11.1476 42.8349 11.5846C42.3978 12.0217 41.841 12.3193 41.2348 12.4399C40.6286 12.5604 40.0003 12.4986 39.4293 12.262C38.8582 12.0255 38.3702 11.625 38.0268 11.1111C37.6834 10.5972 37.5002 9.99297 37.5002 9.37491C37.5011 8.5464 37.8307 7.75209 38.4165 7.16625C39.0023 6.5804 39.7966 6.25086 40.6252 6.24991ZM6.25015 9.37491C6.25015 8.75684 6.43343 8.15265 6.77681 7.63875C7.12019 7.12485 7.60825 6.72431 8.17926 6.48778C8.75028 6.25126 9.37862 6.18937 9.98481 6.30995C10.591 6.43053 11.1478 6.72816 11.5849 7.1652C12.0219 7.60224 12.3195 8.15906 12.4401 8.76525C12.5607 9.37144 12.4988 9.99977 12.2623 10.5708C12.0258 11.1418 11.6252 11.6299 11.1113 11.9732C10.5974 12.3166 9.99322 12.4999 9.37515 12.4999C8.5466 12.4991 7.75223 12.1696 7.16636 11.5837C6.58048 10.9978 6.25098 10.2035 6.25015 9.37491ZM9.37515 43.7499C8.75708 43.7499 8.1529 43.5666 7.63899 43.2233C7.12509 42.8799 6.72455 42.3918 6.48803 41.8208C6.2515 41.2498 6.18962 40.6214 6.3102 40.0153C6.43077 39.4091 6.7284 38.8522 7.16544 38.4152C7.60248 37.9782 8.1593 37.6805 8.76549 37.56C9.37168 37.4394 10 37.5013 10.571 37.7378C11.1421 37.9743 11.6301 38.3748 11.9735 38.8888C12.3169 39.4027 12.5002 40.0068 12.5002 40.6249C12.4992 41.4534 12.1697 42.2477 11.5838 42.8336C10.998 43.4194 10.2037 43.749 9.37515 43.7499ZM34.597 39.0624H15.4033C15.1234 37.9881 14.5621 37.0079 13.7771 36.223C12.9921 35.438 12.0119 34.8766 10.9377 34.5968V15.403C12.0119 15.123 12.992 14.5616 13.7769 13.7767C14.5619 12.9917 15.1233 12.0116 15.4033 10.9374H34.597C34.8769 12.0117 35.4382 12.9919 36.2232 13.7768C37.0082 14.5618 37.9884 15.1232 39.0627 15.403V34.5968C37.9883 34.8765 37.0081 35.4379 36.2231 36.2229C35.4381 37.0079 34.8768 37.9881 34.597 39.0624ZM40.6252 43.7499C40.0071 43.7499 39.4029 43.5666 38.889 43.2233C38.3751 42.8799 37.9746 42.3918 37.738 41.8208C37.5015 41.2498 37.4396 40.6214 37.5602 40.0153C37.6808 39.4091 37.9784 38.8522 38.4154 38.4152C38.8525 37.9782 39.4093 37.6805 40.0155 37.56C40.6217 37.4394 41.25 37.5013 41.821 37.7378C42.3921 37.9743 42.8801 38.3748 43.2235 38.8888C43.5669 39.4027 43.7502 40.0068 43.7502 40.6249C43.749 41.4534 43.4194 42.2476 42.8336 42.8334C42.2478 43.4192 41.4536 43.7488 40.6252 43.7499Z" fill="#01ABBB"/>
</g>
<defs>
<clipPath id="clip0_33_821">
<rect width="50" height="50" fill="white"/>
</clipPath>
</defs>
</svg>
