<svg width="50" height="50" viewBox="0 0 50 50" fill="none" xmlns="http://www.w3.org/2000/svg">
<g clip-path="url(#clip0_33_824)">
<path d="M43.75 3.125H25C24.1715 3.12583 23.3771 3.45533 22.7912 4.0412C22.2053 4.62708 21.8758 5.42145 21.875 6.25V21.875H6.25C5.42145 21.8758 4.62708 22.2053 4.0412 22.7912C3.45533 23.3771 3.12583 24.1715 3.125 25V46.875H46.875V6.25C46.8741 5.42149 46.5445 4.62719 45.9587 4.04134C45.3728 3.4555 44.5785 3.12595 43.75 3.125ZM14.0625 43.75V32.8125H20.3125V43.75H14.0625ZM43.75 43.75H23.4375V31.25C23.4375 30.8356 23.2729 30.4382 22.9799 30.1451C22.6868 29.8521 22.2894 29.6875 21.875 29.6875H12.5C12.0856 29.6875 11.6882 29.8521 11.3951 30.1451C11.1021 30.4382 10.9375 30.8356 10.9375 31.25V43.75H6.25V25H25V6.25H43.75V43.75Z" fill="#01ABBB"/>
<path d="M31.25 12.5H28.125V15.625H31.25V12.5Z" fill="#01ABBB"/>
<path d="M40.625 12.5H37.5V15.625H40.625V12.5Z" fill="#01ABBB"/>
<path d="M31.25 21.875H28.125V25H31.25V21.875Z" fill="#01ABBB"/>
<path d="M40.625 21.875H37.5V25H40.625V21.875Z" fill="#01ABBB"/>
<path d="M31.25 31.2493H28.125V34.3743H31.25V31.2493Z" fill="#01ABBB"/>
<path d="M40.625 31.2493H37.5V34.3743H40.625V31.2493Z" fill="#01ABBB"/>
</g>
<defs>
<clipPath id="clip0_33_824">
<rect width="50" height="50" fill="white"/>
</clipPath>
</defs>
</svg>
