<svg width="47" height="36" viewBox="0 0 47 36" fill="none" xmlns="http://www.w3.org/2000/svg">
<path d="M13.5223 1C11.3795 1 9.42076 2.31417 8.60045 4.31473C8.59626 4.33147 8.57115 4.33147 8.56696 4.34821L5.41964 11.7143H4.21429C2.45229 11.7143 1 13.1666 1 14.9286C1 16.6906 2.45229 18.1429 4.21429 18.1429V32.0714C4.21429 33.8334 5.66657 35.2857 7.42857 35.2857H10.6429C12.4049 35.2857 13.8571 33.8334 13.8571 32.0714V31H33.1429V32.0714C33.1429 33.8334 34.5951 35.2857 36.3571 35.2857H39.5714C41.3334 35.2857 42.7857 33.8334 42.7857 32.0714V18.1429C44.5477 18.1429 46 16.6906 46 14.9286C46 13.1666 44.5477 11.7143 42.7857 11.7143H41.5804L38.433 4.34821C38.4288 4.33147 38.4037 4.33147 38.3996 4.31473C37.5792 2.31417 35.6205 1 33.4777 1H13.5223ZM13.5223 3.14286H33.4777C34.7458 3.14286 35.947 3.96317 36.4241 5.15179L36.4576 5.18527L39.471 12.25L38.433 12.9531V12.9866C37.5458 13.606 36.5957 13.8571 35.4866 13.8571H11.5134C10.4043 13.8571 9.45424 13.606 8.56696 12.9866V12.9531L7.52902 12.25L10.5424 5.18527L10.5759 5.15179C11.053 3.96317 12.2542 3.14286 13.5223 3.14286ZM4.21429 13.8571H6.02232L7.36161 14.7612V14.7277H7.39509C8.64648 15.594 10.0611 16 11.5134 16H35.4866C36.9389 16 38.3535 15.594 39.6049 14.7277C39.6133 14.7235 39.63 14.7319 39.6384 14.7277V14.7612L40.9777 13.8571H42.7857C43.38 13.8571 43.8571 14.3343 43.8571 14.9286C43.8571 15.5229 43.38 16 42.7857 16H40.6429V28.8571H6.35714V16H4.21429C3.61998 16 3.14286 15.5229 3.14286 14.9286C3.14286 14.3343 3.61998 13.8571 4.21429 13.8571ZM12.25 19.2143C10.1908 19.2143 8.5 20.9051 8.5 22.9643C8.5 25.0234 10.1908 26.7143 12.25 26.7143C14.3092 26.7143 16 25.0234 16 22.9643C16 20.9051 14.3092 19.2143 12.25 19.2143ZM34.75 19.2143C32.6908 19.2143 31 20.9051 31 22.9643C31 25.0234 32.6908 26.7143 34.75 26.7143C36.8092 26.7143 38.5 25.0234 38.5 22.9643C38.5 20.9051 36.8092 19.2143 34.75 19.2143ZM12.25 21.3571C13.1875 21.3571 13.8571 22.0268 13.8571 22.9643C13.8571 23.9018 13.1875 24.5714 12.25 24.5714C11.3125 24.5714 10.6429 23.9018 10.6429 22.9643C10.6429 22.0268 11.3125 21.3571 12.25 21.3571ZM34.75 21.3571C35.6875 21.3571 36.3571 22.0268 36.3571 22.9643C36.3571 23.9018 35.6875 24.5714 34.75 24.5714C33.8125 24.5714 33.1429 23.9018 33.1429 22.9643C33.1429 22.0268 33.8125 21.3571 34.75 21.3571ZM6.35714 31H11.7143V32.0714C11.7143 32.6657 11.2372 33.1429 10.6429 33.1429H7.42857C6.83426 33.1429 6.35714 32.6657 6.35714 32.0714V31ZM35.2857 31H40.6429V32.0714C40.6429 32.6657 40.1657 33.1429 39.5714 33.1429H36.3571C35.7628 33.1429 35.2857 32.6657 35.2857 32.0714V31Z" fill="white" stroke="white"/>
</svg>
