<svg width="63" height="61" viewBox="0 0 63 61" fill="none" xmlns="http://www.w3.org/2000/svg">
<path d="M28.3039 21.832H34.5409V23.912H28.3039V21.832ZM50.2639 15.595L48.1849 0H47.1449L48.9639 15.595H50.2639ZM27.2469 0H24.0629L23.7089 4.238L21.6369 4.065L21.9769 0H17.7939L15.9739 15.594H26.9869L27.2469 0ZM23.0169 12.53L20.9459 12.356L21.2889 8.24L23.3609 8.413L23.0179 12.529L23.0169 12.53ZM33.5199 0H32.4619V15.595H33.7789L33.5199 0ZM30.3839 0H29.3259L29.0659 15.595H30.3839V0ZM46.8699 15.595L45.0499 0H40.8699L41.2079 4.065L39.1359 4.238L38.7829 0H35.5979L35.8579 15.594H46.8699V15.595ZM41.5559 8.24L41.8989 12.355L39.8269 12.529L39.4839 8.413L41.5559 8.24ZM21.1099 35.434L19.0379 35.26L19.4639 30.148H14.2769L10.7599 60.297H16.9519L17.3019 56.094L19.3739 56.268L19.0379 60.298H26.2419L26.7459 30.149H21.5499L21.1089 35.434H21.1099ZM19.7229 52.08L17.6509 51.906L17.9969 47.754L20.0689 47.927L19.7229 52.08ZM20.4219 43.694L18.3499 43.521L18.6949 39.385L20.7669 39.559L20.4219 43.694ZM32.4619 30.148V60.298H34.5249L34.0209 30.148H32.4609H32.4619ZM43.3819 30.148L43.8079 35.26L41.7359 35.434L41.2959 30.149H36.0999L36.6019 60.298H43.8059L43.4699 56.268L45.5419 56.094L45.8939 60.298H52.0849L48.5699 30.149H43.3829L43.3819 30.148ZM42.0789 39.56L44.1509 39.386L44.4959 43.522L42.4239 43.695L42.0789 39.56ZM43.1229 52.08L42.7769 47.929L44.8489 47.755L45.1949 51.907L43.1229 52.08ZM50.6629 30.148L54.1799 60.298H56.2249L52.2049 30.148H50.6629ZM28.3209 60.298H30.3839V30.148H28.8239L28.3209 60.298ZM58.4529 37.426H62.6109L61.5709 31.189V24.95C61.5709 23.23 60.1709 21.831 58.4509 21.831H57.4119V23.911H58.4519C59.0249 23.911 59.4919 24.376 59.4919 24.951V31.194L58.4519 37.425L58.4529 37.426ZM1.27486 24.951V31.189L0.234863 37.426H4.39386L3.35386 31.189V24.95C3.35386 24.376 3.81986 23.91 4.39386 23.91H5.43386V21.831H4.39386C2.67386 21.831 1.27486 23.231 1.27486 24.951Z" fill="white"/>
</svg>
