<svg width="45" height="45" viewBox="0 0 45 45" fill="none" xmlns="http://www.w3.org/2000/svg">
<path d="M8.0208 6.42461H33.735V24.1029H36.9496V3.21045H4.80664V41.7817H22.485V38.5675H8.0208V6.42461Z" fill="white"/>
<path d="M11.2349 9.63916H30.5207V12.8533H11.2349V9.63916ZM11.2349 16.0679H27.3061V19.2821H11.2349V16.0679ZM11.2349 22.4962H20.8778V25.7104H11.2349V22.4962Z" fill="white"/>
<path d="M25.4 29L22.5 34.41C22.1933 34.99 21.8167 35.43 21.37 35.73C20.93 36.03 20.4467 36.18 19.92 36.18C19.5333 36.18 19.12 36.0933 18.68 35.92L19.15 34.46C19.4233 34.54 19.6567 34.58 19.85 34.58C20.0433 34.58 20.2133 34.5367 20.36 34.45C20.5133 34.3633 20.6533 34.2267 20.78 34.04L18.06 29H20.15L21.78 32.38L23.47 29H25.4ZM29.3475 36.14C28.6142 36.14 27.9542 35.9867 27.3675 35.68C26.7875 35.3667 26.3308 34.9333 25.9975 34.38C25.6642 33.8267 25.4975 33.2 25.4975 32.5C25.4975 31.8 25.6642 31.1733 25.9975 30.62C26.3308 30.0667 26.7875 29.6367 27.3675 29.33C27.9542 29.0167 28.6142 28.86 29.3475 28.86C29.9875 28.86 30.5642 28.9733 31.0775 29.2C31.5908 29.4267 32.0175 29.7533 32.3575 30.18L31.0975 31.32C30.6442 30.7733 30.0942 30.5 29.4475 30.5C29.0675 30.5 28.7275 30.5833 28.4275 30.75C28.1342 30.9167 27.9042 31.1533 27.7375 31.46C27.5775 31.76 27.4975 32.1067 27.4975 32.5C27.4975 32.8933 27.5775 33.2433 27.7375 33.55C27.9042 33.85 28.1342 34.0833 28.4275 34.25C28.7275 34.4167 29.0675 34.5 29.4475 34.5C30.0942 34.5 30.6442 34.2267 31.0975 33.68L32.3575 34.82C32.0175 35.2467 31.5908 35.5733 31.0775 35.8C30.5642 36.0267 29.9875 36.14 29.3475 36.14ZM39.912 29V36H37.932V33.27H35.232V36H33.252V29H35.232V31.63H37.932V29H39.912Z" fill="white"/>
</svg>
