<svg width="45" height="45" viewBox="0 0 45 45" fill="none" xmlns="http://www.w3.org/2000/svg">
<g clip-path="url(#clip0_33_819)">
<path d="M45 7.14003L28.6312 0H16.3689L0 7.14003V13.2813H14.7036L6.26152 42.0451H0.0914076V45.0001H44.9087V42.0451H38.7386L30.2965 13.2813H45.0001L45 7.14003ZM18.1546 2.95499H26.8455V10.3263H18.1546V2.95499ZM17.7833 13.2813H27.2168L28.6481 18.1578L22.5 24.8546L16.352 18.1578L17.7833 13.2813ZM2.95499 10.3263V9.07506L15.1997 3.73392V10.3263H2.95499ZM15.3802 21.4688L20.4943 27.0393L10.5736 37.8456L15.3802 21.4688ZM10.7298 42.045L22.5 29.2241L34.2703 42.045H10.7298ZM34.4264 37.8456L24.5058 27.0394L29.6198 21.4689L34.4264 37.8456ZM42.045 10.3263H29.8004V3.73392L42.0451 9.07506L42.045 10.3263Z" fill="#01ABBB"/>
</g>
<defs>
<clipPath id="clip0_33_819">
<rect width="45" height="45" fill="white"/>
</clipPath>
</defs>
</svg>
