<svg width="45" height="45" viewBox="0 0 45 45" fill="none" xmlns="http://www.w3.org/2000/svg">
<path d="M43.0985 13.0802H35.8328C34.7856 13.0802 33.9222 13.9437 33.9222 14.9908V16.9014H24.8469V6.77894H29.5315C30.5786 6.77894 31.4421 5.9155 31.4421 4.86835C31.4421 3.8212 30.5786 2.95776 29.5315 2.95776H16.3411C15.2939 2.95776 14.4305 3.8212 14.4305 4.86835C14.4305 5.9155 15.2939 6.77894 16.3411 6.77894H21.0257V16.9106H10.9859V15C10.9859 13.9528 10.1225 13.0894 9.0753 13.0894H1.91059C0.86344 13.0894 0 13.9528 0 15V40.1316C0 41.1787 0.86344 42.0422 1.91059 42.0422H9.0753C10.1225 42.0422 10.9859 41.1787 10.9859 40.1316V38.221H33.9222V40.1316C33.9222 41.1787 34.7856 42.0422 35.8328 42.0422H42.9975C44.0446 42.0422 44.9081 41.1787 44.9999 40.2235V14.9908C45.0091 13.9437 44.1457 13.0802 43.0985 13.0802ZM41.1879 38.3129H37.7433V36.3104C37.7433 35.2633 36.8799 34.3998 35.8328 34.3998H9.17634C8.12919 34.3998 7.26575 35.2633 7.26575 36.3104V38.221H3.72932V16.8187H7.16471V18.7293C7.16471 19.7765 8.02815 20.6399 9.0753 20.6399H35.7409C36.788 20.6399 37.6515 19.7765 37.6515 18.7293V16.8187H41.1879V38.3129Z" fill="#01ABBB"/>
</svg>
