<svg width="45" height="45" viewBox="0 0 45 45" fill="none" xmlns="http://www.w3.org/2000/svg">
<path d="M8.0208 6.42461H33.735V24.1029H36.9496V3.21045H4.80664V41.7817H22.485V38.5675H8.0208V6.42461Z" fill="white"/>
<path d="M11.2354 9.63916H30.5212V12.8533H11.2354V9.63916ZM11.2354 16.0679H27.3066V19.2821H11.2354V16.0679ZM11.2354 22.4962H20.8783V25.7104H11.2354V22.4962Z" fill="white"/>
<path fill-rule="evenodd" clip-rule="evenodd" d="M34.8334 31.4802C35.2351 30.7906 35.0048 29.9057 34.3175 29.4998L30.6051 27.3067C29.5133 26.6616 28.1292 26.8 27.1866 27.6484L24.8643 29.7384C23.8642 30.6385 23.6137 32.1077 24.2587 33.2883L26.4636 37.3229C26.8555 38.0401 27.7619 38.2925 28.4679 37.881L30.038 36.9663C30.6597 36.604 31.4531 36.7519 31.9025 37.3139L33.2368 38.983L33.5041 38.7743C33.8076 38.5372 34.1928 38.4306 34.575 38.4776C34.9572 38.5248 35.305 38.7217 35.5418 39.0252L37.2129 41.1669C37.922 42.0756 39.3562 41.835 39.7303 40.745L39.8717 40.3327L34.1279 34.9224C33.6365 34.4594 33.5292 33.7185 33.8691 33.1352L34.8334 31.4802ZM35.7941 27.0004C37.8558 28.2184 38.5472 30.8726 37.3416 32.9417L36.9581 33.6001L42.5437 38.8616C42.9587 39.2525 43.1063 39.8501 42.9214 40.3894L42.4761 41.6871C41.3541 44.9575 37.0514 45.6786 34.9244 42.9529L34.1465 41.956L33.8926 42.1542C33.2659 42.6435 32.3622 42.5377 31.8656 41.9166L30.4172 40.1052L29.9295 40.3894C27.8111 41.6236 25.0918 40.8665 23.916 38.715L21.7113 34.6803C20.421 32.3192 20.9222 29.3807 22.9222 27.5806L25.2446 25.4906C27.1298 23.7938 29.8981 23.5172 32.0817 24.8072L35.7941 27.0004ZM28.5915 33.8659C29.7939 33.8659 30.7687 32.891 30.7687 31.6886C30.7687 30.4862 29.7939 29.5114 28.5915 29.5114C27.389 29.5114 26.4142 30.4862 26.4142 31.6886C26.4142 32.891 27.389 33.8659 28.5915 33.8659Z" fill="white"/>
</svg>
