<svg width="300" height="90" viewBox="0 0 300 90" fill="none" xmlns="http://www.w3.org/2000/svg">
<mask id="mask0_33_737" style="mask-type:luminance" maskUnits="userSpaceOnUse" x="0" y="0" width="300" height="90">
<path d="M0 0H300V89.2855H0V0Z" fill="white"/>
</mask>
<g mask="url(#mask0_33_737)">
<path d="M94.517 51.6642H97.2529L93.5486 42.2711L97.2529 34.7172H94.5896L91.1033 42.1018V34.7172H88.4409V51.6642H91.1033V46.4591L91.9272 44.9095L94.517 51.6642ZM102.726 38.6155C102.726 37.4052 103.258 36.9446 104.106 36.9446C104.953 36.9446 105.485 37.4044 105.485 38.6155V47.7668C105.485 48.977 104.953 49.4369 104.106 49.4369C103.258 49.4369 102.726 48.977 102.726 47.7668V38.6155ZM100.062 47.5976C100.062 50.3087 101.491 51.8582 104.106 51.8582C106.72 51.8582 108.149 50.3087 108.149 47.5976V38.7856C108.149 36.0736 106.72 34.5241 104.106 34.5241C101.491 34.5241 100.062 36.0736 100.062 38.7847V47.5976ZM115.616 34.7181H111.695V51.6642H114.357V45.2967H115.616C118.279 45.2967 119.587 43.8206 119.587 41.1087V38.9061C119.587 36.195 118.279 34.7181 115.616 34.7181ZM115.616 37.1386C116.464 37.1386 116.924 37.5258 116.924 38.7369V41.2779C116.924 42.489 116.464 42.8762 115.616 42.8762H114.357V37.1386H115.616ZM125.3 37.1386H128.326V51.6642H131.038V34.7172H122.637V51.6642H125.3V37.1386ZM137.23 38.6155C137.23 37.4052 137.762 36.9446 138.609 36.9446C139.457 36.9446 139.99 37.4044 139.99 38.6155V47.7668C139.99 48.977 139.457 49.4369 138.609 49.4369C137.762 49.4369 137.23 48.977 137.23 47.7668V38.6155ZM134.567 47.5976C134.567 50.3087 135.996 51.8582 138.609 51.8582C141.224 51.8582 142.653 50.3087 142.653 47.5976V38.7856C142.653 36.0736 141.224 34.5241 138.609 34.5241C135.996 34.5241 134.567 36.0736 134.567 38.7847V47.5976ZM150.121 34.7181H146.199V51.6642H148.862V45.2967H150.121C152.785 45.2967 154.091 43.8206 154.091 41.1087V38.9061C154.091 36.195 152.785 34.7181 150.121 34.7181ZM150.121 37.1386C150.968 37.1386 151.429 37.5258 151.429 38.7369V41.2779C151.429 42.489 150.968 42.8762 150.121 42.8762H148.862V37.1386H150.121ZM163.048 34.7181H159.15L156.439 51.6642H158.885L159.344 48.5899H162.612L163.073 51.6642H165.76L163.048 34.7181ZM160.966 37.7198L162.249 46.2899H159.684L160.966 37.7198ZM168.816 51.6642H175.789V53.9403H178.379V49.2907H177.217V34.7181H174.505V49.2437H171.479V34.7181H168.816V51.6651V51.6642ZM186.612 43.8933L187.702 39.7292V51.6642H190.097V34.7172H187.169L184.99 41.7138L184.021 45.442V34.7181H181.649V51.6651H184.384L186.612 43.8933ZM196.024 51.6642C196.169 51.2283 196.265 50.9625 196.265 49.5822V46.9189C196.265 45.3454 196.798 44.7651 198.008 44.7651H198.928V51.6642H201.591V34.7172H197.573C194.813 34.7172 193.626 36.0001 193.626 38.6146V39.9463C193.626 41.6899 194.183 42.8275 195.37 43.3847C194.037 43.9411 193.602 45.2249 193.602 46.9916V49.607C193.602 50.4292 193.579 51.0343 193.312 51.6642H196.024ZM198.928 37.1386V42.3437H197.888C196.895 42.3437 196.289 41.9078 196.289 40.5523V38.8805C196.289 37.6702 196.701 37.1369 197.645 37.1369H198.928V37.1386ZM214.85 34.7181H210.927V51.6642H213.59V45.2967H214.85C217.513 45.2967 218.82 43.8206 218.82 41.1087V38.9061C218.82 36.195 217.513 34.7181 214.85 34.7181ZM214.85 37.1386C215.696 37.1386 216.157 37.5258 216.157 38.7369V41.2779C216.157 42.489 215.696 42.8762 214.85 42.8762H213.59V37.1386H214.85ZM227.776 34.7181H223.879L221.167 51.6642H223.612L224.073 48.5899H227.34L227.801 51.6642H230.488L227.776 34.7181ZM225.694 37.7198L226.977 46.2899H224.412L225.694 37.7198ZM238.677 39.8258C238.677 41.1813 238.072 41.6172 237.079 41.6172H236.28V44.0386H236.934C238.144 44.0386 238.677 44.6198 238.677 46.1924V47.5249C238.677 49.0258 238.144 49.4369 237.296 49.4369C236.449 49.4369 235.917 48.977 235.917 47.7668V45.7326H233.399V47.5976C233.399 50.3087 234.755 51.8582 237.369 51.8582C239.984 51.8582 241.34 50.3087 241.34 47.5976V46.2651C241.34 44.5463 240.808 43.2873 239.475 42.7061C240.759 42.1736 241.34 41.0352 241.34 39.2198V38.7839C241.34 36.0728 239.984 34.5232 237.369 34.5232C234.755 34.5232 233.448 36.024 233.448 38.7352V39.9941H235.893V38.6155C235.893 37.4052 236.449 36.9446 237.296 36.9446C238.144 36.9446 238.677 37.3565 238.677 38.8813V39.8258ZM248.978 34.7181H244.959V51.6642H249.147C251.809 51.6642 253.19 50.2599 253.19 47.6454V46.2651C253.19 44.4736 252.633 43.1907 251.205 42.6343C252.39 42.077 252.924 40.9634 252.924 39.2206V38.6146C252.924 36.0001 251.737 34.7181 248.978 34.7181ZM248.808 44.0386C250.02 44.0386 250.527 44.5223 250.527 46.0958V47.5728C250.527 48.8317 250.043 49.2437 249.147 49.2437H247.621V44.0386H248.808ZM248.905 37.1386C249.849 37.1386 250.261 37.6711 250.261 38.8822V39.8258C250.261 41.1813 249.655 41.6172 248.663 41.6172H247.621V37.1386H248.905ZM261.572 43.8933L262.661 39.7292V51.6642H265.058V34.7172H262.129L259.95 41.7138L258.981 45.442V34.7181H256.608V51.6651H259.344L261.572 43.8933ZM267.982 37.1386H270.767V51.6642H273.43V37.1386H276.214V34.7172H267.982V37.1386ZM284.166 43.8933L285.255 39.7292V51.6642H287.651V34.7172H284.723L282.543 41.7138L281.575 45.442V34.7181H279.202V51.6651H281.938L284.166 43.8933ZM293.577 51.6642C293.722 51.2283 293.819 50.9625 293.819 49.5822V46.9189C293.819 45.3454 294.352 44.7651 295.561 44.7651H296.482V51.6642H299.145V34.7172H295.126C292.367 34.7172 291.181 36.0001 291.181 38.6146V39.9463C291.181 41.6899 291.737 42.8275 292.924 43.3847C291.591 43.9411 291.155 45.2249 291.155 46.9916V49.607C291.155 50.4292 291.132 51.0343 290.865 51.6642H293.577ZM296.482 37.1386V42.3437H295.442C294.449 42.3437 293.843 41.9078 293.843 40.5523V38.8805C293.843 37.6702 294.255 37.1369 295.198 37.1369H296.482V37.1386Z" fill="#2B2A29"/>
<path d="M90.7084 60.6546C91.6819 60.6546 92.3734 60.9367 92.7819 61.5025C93.2024 62.0546 93.4127 62.7931 93.4127 63.7187V65.0888C93.4127 66.0982 93.1785 66.8495 92.7093 67.3418C92.2409 67.835 91.5016 68.0811 90.4922 68.0811H88.9238V73.2726H88.0947V60.6546H90.7084ZM90.4922 67.3239C91.2255 67.3239 91.7537 67.1555 92.0785 66.8196C92.4152 66.4709 92.5836 65.9119 92.5836 65.1427V63.6649C92.5836 62.9803 92.4452 62.4341 92.1691 62.0247C91.9041 61.6162 91.4178 61.4119 90.7084 61.4119H88.9238V67.3239H90.4922ZM104.07 67.6307C103.71 67.6307 103.385 67.6666 103.096 67.7384C102.821 67.7925 102.562 67.9099 102.34 68.0811C102.126 68.25 101.964 68.4749 101.871 68.7307C101.763 69.0068 101.709 69.3546 101.709 69.7751V71.758C101.713 72.0536 101.695 72.349 101.655 72.6418C101.621 72.8634 101.548 73.0771 101.438 73.2726H100.573C100.709 73.0598 100.795 72.8195 100.825 72.5692C100.861 72.2931 100.879 72.0221 100.879 71.758V69.7948C100.879 69.1093 101.018 68.5444 101.295 68.0999C101.583 67.6555 102.051 67.3606 102.701 67.217C101.487 66.9401 100.879 66.0692 100.879 64.6033V63.5033C100.879 62.6145 101.09 61.917 101.511 61.4127C101.931 60.9085 102.622 60.6555 103.584 60.6555H106.215V73.2734H105.386V67.6315L104.07 67.6307ZM103.602 61.4119C102.917 61.4119 102.43 61.6042 102.142 61.9888C101.853 62.3615 101.709 62.8897 101.709 63.5751V64.7649C101.709 65.1854 101.763 65.5341 101.871 65.8102C101.979 66.0863 102.13 66.3025 102.322 66.4589C102.526 66.6153 102.773 66.7239 103.061 66.7837C103.349 66.8435 103.679 66.8734 104.052 66.8734H105.386V61.4119H103.602ZM116.377 60.5469C116.857 60.5469 117.267 60.6307 117.602 60.7991C117.951 60.9555 118.233 61.1777 118.449 61.4657C118.678 61.7427 118.84 62.0786 118.937 62.4751C119.044 62.8598 119.099 63.2803 119.099 63.7375V64.0623C119.099 64.6863 118.949 65.2333 118.648 65.7016C118.36 66.1589 117.939 66.4768 117.386 66.6572C117.963 66.8256 118.39 67.1444 118.666 67.6127C118.955 68.0692 119.099 68.6042 119.099 69.217V70.1905C119.099 70.6469 119.044 71.0734 118.937 71.47C118.848 71.8375 118.682 72.1817 118.449 72.4794C118.223 72.7642 117.933 72.9925 117.602 73.1461C117.267 73.3025 116.857 73.3803 116.377 73.3803C115.896 73.3803 115.482 73.3025 115.133 73.1461C114.807 72.9861 114.518 72.7589 114.286 72.4794C114.063 72.176 113.897 71.8337 113.799 71.47C113.701 71.0507 113.653 70.6212 113.655 70.1905V69.1444H114.448V70.2444C114.448 70.5803 114.478 70.8939 114.538 71.1811C114.61 71.47 114.725 71.7221 114.881 71.9384C115.037 72.1546 115.235 72.323 115.476 72.4427C115.716 72.5632 116.01 72.6239 116.359 72.6239C117.055 72.6239 117.549 72.3957 117.837 71.9384C118.125 71.482 118.269 70.8931 118.269 70.1717V69.1991C118.269 68.5495 118.096 68.0333 117.747 67.6486C117.41 67.264 116.936 67.0717 116.323 67.0717H115.62V66.3145H116.377C116.942 66.3145 117.398 66.117 117.747 65.7204C118.096 65.3119 118.269 64.8127 118.269 64.2247V63.7546C118.269 63.0341 118.125 62.4452 117.837 61.9888C117.549 61.5324 117.055 61.3042 116.359 61.3042C115.662 61.3042 115.163 61.5324 114.863 61.9888C114.574 62.4333 114.43 62.9982 114.43 63.6837V64.3674H113.673V63.7196C113.673 63.2623 113.721 62.8418 113.817 62.4572C113.913 62.0981 114.079 61.7612 114.304 61.4657C114.52 61.1777 114.796 60.9555 115.133 60.7991C115.482 60.6307 115.896 60.5469 116.377 60.5469ZM127.749 70.4786L127.118 73.2726H126.361L129.119 60.6367H130.326L133.137 73.2726H132.309L131.678 70.4777L127.749 70.4786ZM127.875 69.7572H131.552L129.695 61.5922L127.875 69.7572ZM141.26 67.3418V73.2726H140.431V60.6546H141.26V66.5854H145.19V60.6546H146.037V73.2734H145.19V67.3418H141.26ZM156.177 60.5469C156.658 60.5469 157.066 60.6307 157.403 60.7991C157.752 60.9555 158.034 61.1777 158.25 61.4657C158.478 61.7427 158.641 62.0786 158.737 62.4751C158.844 62.8598 158.9 63.2803 158.9 63.7375V64.7828H158.105V63.6828C158.108 63.3674 158.072 63.0528 157.998 62.7461C157.944 62.4737 157.834 62.2156 157.673 61.9888C157.519 61.7745 157.315 61.6013 157.078 61.4845C156.837 61.364 156.543 61.3042 156.195 61.3042C155.847 61.3042 155.552 61.364 155.313 61.4837C155.076 61.6008 154.871 61.7742 154.717 61.9888C154.556 62.2172 154.439 62.4742 154.374 62.7461C154.313 63.0548 154.282 63.3689 154.284 63.6837V70.2444C154.284 70.5803 154.315 70.8939 154.374 71.1811C154.447 71.47 154.561 71.7221 154.717 71.9384C154.873 72.1435 155.072 72.3059 155.313 72.4256C155.552 72.5452 155.847 72.6051 156.195 72.6051C156.543 72.6051 156.837 72.5452 157.078 72.4256C157.319 72.3059 157.517 72.1435 157.673 71.9384C157.834 71.7116 157.944 71.4536 157.998 71.1811C158.072 70.8744 158.108 70.5598 158.105 70.2444V68.7486H158.9V70.1905C158.9 70.6469 158.844 71.0734 158.737 71.47C158.641 71.8546 158.478 72.1905 158.25 72.4794C158.023 72.7642 157.733 72.9925 157.403 73.1461C157.066 73.3025 156.658 73.3803 156.177 73.3803C155.697 73.3803 155.282 73.3025 154.934 73.1461C154.608 72.9859 154.319 72.7587 154.086 72.4794C153.863 72.1762 153.698 71.8338 153.6 71.47C153.501 71.0508 153.452 70.6213 153.455 70.1905V63.7375C153.455 63.2803 153.503 62.8598 153.6 62.4751C153.708 62.0786 153.87 61.7427 154.086 61.4666C154.312 61.1805 154.603 60.9521 154.934 60.7999C155.282 60.6307 155.697 60.5469 156.177 60.5469ZM167.984 67.3418L167.119 68.7119V73.2726H166.29V60.6546H167.119V67.3239L171.228 60.6546H172.094L168.489 66.5307L172.328 73.2726H171.463L167.984 67.3418ZM179.562 63.7375C179.559 63.3114 179.613 62.8867 179.724 62.4751C179.832 62.0786 179.994 61.7427 180.211 61.4666C180.441 61.1771 180.738 60.9482 181.077 60.7999C181.425 60.6307 181.839 60.5469 182.32 60.5469C182.8 60.5469 183.216 60.6307 183.563 60.7991C183.924 60.9555 184.22 61.1777 184.447 61.4657C184.675 61.7427 184.843 62.0786 184.951 62.4751C185.06 62.8598 185.114 63.2803 185.114 63.7375V70.1905C185.114 70.6469 185.06 71.0734 184.951 71.47C184.843 71.8546 184.675 72.1905 184.447 72.4794C184.206 72.7653 183.904 72.9932 183.563 73.1461C183.216 73.3025 182.8 73.3803 182.32 73.3803C181.839 73.3803 181.425 73.3025 181.077 73.1461C180.743 72.9896 180.448 72.7621 180.211 72.4794C179.987 72.1762 179.822 71.8339 179.724 71.47C179.614 71.0525 179.56 70.6223 179.562 70.1905V63.7375ZM180.392 70.2444C180.392 70.929 180.536 71.5008 180.824 71.9563C181.124 72.4008 181.623 72.623 182.32 72.623C183.017 72.623 183.516 72.4008 183.816 71.9563C184.129 71.4999 184.284 70.929 184.284 70.2444V63.6828C184.284 62.9982 184.129 62.4333 183.816 61.9888C183.516 61.5324 183.017 61.3042 182.32 61.3042C181.623 61.3042 181.124 61.5324 180.824 61.9888C180.536 62.4333 180.392 62.9982 180.392 63.6837V70.2444ZM197.242 58.3119C197.23 58.8042 197.055 59.1837 196.719 59.4478C196.383 59.7119 195.949 59.8435 195.421 59.8435C194.904 59.8435 194.478 59.7119 194.142 59.4478C193.804 59.1828 193.631 58.8042 193.619 58.311H194.196C194.208 58.6726 194.334 58.9307 194.573 59.0871C194.814 59.2427 195.097 59.3213 195.421 59.3213C195.758 59.3213 196.046 59.2427 196.286 59.0871C196.527 58.9307 196.659 58.6726 196.683 58.3119H197.242ZM193.42 73.2726H192.519V60.6555H193.276V71.4521L194.863 66.964L197.152 60.6555H198.143V73.2726H197.385V62.1153L193.42 73.2726ZM214.401 63.7375C214.401 63.2803 214.454 62.8598 214.562 62.4751C214.671 62.0786 214.832 61.7427 215.049 61.4666C215.279 61.1771 215.576 60.9482 215.914 60.7999C216.262 60.6307 216.678 60.5469 217.158 60.5469C217.638 60.5469 218.053 60.6307 218.402 60.7991C218.762 60.9555 219.056 61.1777 219.285 61.4657C219.514 61.7427 219.681 62.0786 219.79 62.4751C219.898 62.8598 219.952 63.2803 219.952 63.7375V70.1905C219.952 70.6469 219.898 71.0734 219.79 71.47C219.681 71.8546 219.514 72.1905 219.285 72.4794C219.044 72.765 218.742 72.9928 218.402 73.1461C218.053 73.3025 217.638 73.3803 217.158 73.3803C216.678 73.3803 216.262 73.3025 215.914 73.1461C215.581 72.9896 215.286 72.762 215.049 72.4794C214.826 72.1762 214.66 71.8339 214.562 71.47C214.451 71.0526 214.397 70.6223 214.401 70.1905V63.7375ZM215.229 70.2444C215.229 70.929 215.373 71.5008 215.662 71.9563C215.962 72.4008 216.461 72.623 217.158 72.623C217.855 72.623 218.354 72.4008 218.654 71.9563C218.966 71.4999 219.123 70.929 219.123 70.2444V63.6828C219.123 62.9982 218.966 62.4333 218.654 61.9888C218.354 61.5324 217.855 61.3042 217.158 61.3042C216.461 61.3042 215.962 61.5324 215.662 61.9888C215.373 62.4333 215.229 62.9982 215.229 63.6837V70.2444ZM229.989 66.0256C230.961 66.0256 231.695 66.2427 232.188 66.6751C232.681 67.1076 232.927 67.829 232.927 68.8375V70.2623C232.927 71.2239 232.705 71.9683 232.26 72.4974C231.827 73.0145 231.118 73.2726 230.133 73.2726H227.357V60.6546H232.458V61.4119H228.187V66.0264L229.989 66.0256ZM230.133 72.5153C230.842 72.5153 231.346 72.329 231.648 71.9563C231.948 71.5837 232.097 71.0375 232.097 70.3162V68.7845C232.097 68.0153 231.918 67.4922 231.557 67.2162C231.208 66.9392 230.685 66.8016 229.989 66.8016H228.187V72.5153H230.133ZM242.872 61.4119L242.548 70.1897C242.525 70.623 242.481 71.0256 242.422 71.3974C242.384 71.7391 242.279 72.0701 242.114 72.3717C241.956 72.65 241.726 72.8804 241.448 73.0384C241.172 73.1939 240.799 73.2777 240.331 73.2905H240.168V72.5333C240.529 72.5333 240.805 72.4734 240.998 72.3538C241.202 72.2213 241.352 72.0529 241.448 71.8486C241.556 71.6324 241.622 71.3854 241.647 71.1093C241.683 70.8213 241.707 70.5204 241.719 70.2085L242.096 60.6546H246.802V73.2734H245.954V61.4119H242.872ZM255.515 70.4786L254.884 73.2726H254.127L256.885 60.6367H258.094L260.906 73.2726H260.076L259.445 70.4777L255.515 70.4786ZM255.642 69.7572H259.319L257.463 61.5922L255.642 69.7572ZM270.866 60.5469C271.345 60.5469 271.755 60.6307 272.09 60.7991C272.439 60.9555 272.721 61.1777 272.938 61.4657C273.167 61.7427 273.329 62.0786 273.425 62.4751C273.533 62.8598 273.587 63.2803 273.587 63.7375V64.7828H272.794V63.6828C272.794 63.3469 272.757 63.0341 272.686 62.7461C272.633 62.4734 272.522 62.2152 272.361 61.9888C272.207 61.7743 272.003 61.6011 271.767 61.4845C271.526 61.364 271.232 61.3042 270.884 61.3042C270.535 61.3042 270.241 61.364 270 61.4837C269.763 61.6008 269.559 61.7743 269.405 61.9888C269.244 62.2171 269.128 62.4741 269.063 62.7461C269.001 63.0546 268.97 63.3689 268.973 63.6837V70.2444C268.973 70.5803 269.002 70.8939 269.063 71.1811C269.135 71.47 269.249 71.7221 269.405 71.9384C269.561 72.1435 269.76 72.3059 270 72.4256C270.241 72.5452 270.535 72.6051 270.884 72.6051C271.232 72.6051 271.526 72.5452 271.767 72.4256C272.008 72.3059 272.205 72.1435 272.361 71.9384C272.518 71.7221 272.626 71.47 272.686 71.1811C272.757 70.8931 272.794 70.5803 272.794 70.2444V68.7486H273.587V70.1905C273.587 70.6469 273.533 71.0734 273.425 71.47C273.337 71.8375 273.171 72.1817 272.938 72.4794C272.711 72.7641 272.421 72.9922 272.09 73.1461C271.755 73.3025 271.345 73.3803 270.866 73.3803C270.384 73.3803 269.971 73.3025 269.621 73.1461C269.295 72.9861 269.006 72.7589 268.774 72.4794C268.551 72.1758 268.386 71.8336 268.287 71.47C268.189 71.0506 268.141 70.6212 268.143 70.1905V63.7375C268.143 63.2803 268.192 62.8598 268.287 62.4751C268.396 62.0786 268.559 61.7427 268.774 61.4666C269.002 61.1777 269.284 60.9555 269.621 60.7999C269.971 60.6307 270.384 60.5469 270.866 60.5469ZM283.339 73.2726V61.4119H280.761V60.6546H286.745V61.4119H284.168V73.2726H283.339ZM296.961 67.4145L294.906 73.2726H294.004V60.6546H294.761V71.4529L296.221 67.2888L298.637 60.6563H299.628V73.2734H298.871V62.1145L296.961 67.4145Z" fill="#404040"/>
<path d="M15.729 46.6615L23.6615 37.5632V81.9931L15.7299 75.1957L15.729 46.6615Z" fill="url(#paint0_linear_33_737)"/>
<path d="M25.043 35.7138L32.9763 26.1907V85.7428H25.043V35.7138Z" fill="url(#paint1_linear_33_737)"/>
<path d="M42.325 10.8795L34.4985 0.894043V85.6624H42.325V10.8795Z" fill="url(#paint2_linear_33_737)"/>
<path d="M51.7163 22.0445L43.8906 12.0898V84.0633L51.7163 83.1873V22.0445Z" fill="url(#paint3_linear_33_737)"/>
<path d="M61.313 33.5744L53.3164 23.6855V84.0633L61.313 80.4138V33.5744Z" fill="url(#paint4_linear_33_737)"/>
<path d="M28.9513 12.6104C11.5129 17.4163 -0.88627 33.8104 0.0496278 52.6274C0.489854 61.7615 4.10043 70.4564 10.2599 77.2155C23.8411 90.4232 45.7436 91.9035 61.3248 80.9736V74.089C49.6949 85.1377 26.6351 85.3437 14.2582 73.5078C8.97179 67.6875 5.87406 60.21 5.49578 52.3565C4.71117 36.5745 14.6189 17.118 28.9513 12.6104Z" fill="url(#paint5_linear_33_737)"/>
<path d="M61.6641 21.1495C81.8803 41.9418 77.7948 65.4153 63.1059 79.7008V72.2478C72.7906 58.4367 73.1393 34.8179 61.6641 21.1487V21.1495Z" fill="url(#paint6_linear_33_737)"/>
</g>
<defs>
<linearGradient id="paint0_linear_33_737" x1="10.9905" y1="51.7316" x2="33.4555" y2="70.5538" gradientUnits="userSpaceOnUse">
<stop offset="0.077" stop-color="#A1A7AA"/>
<stop offset="1" stop-color="#535150"/>
</linearGradient>
<linearGradient id="paint1_linear_33_737" x1="20.3045" y1="45.53" x2="48.0755" y2="62.577" gradientUnits="userSpaceOnUse">
<stop offset="0.077" stop-color="#A1A7AA"/>
<stop offset="1" stop-color="#535150"/>
</linearGradient>
<linearGradient id="paint2_linear_33_737" x1="34.5797" y1="10.0564" x2="35.4926" y2="84.0513" gradientUnits="userSpaceOnUse">
<stop stop-color="#00ECFF"/>
<stop offset="1" stop-color="#018190"/>
</linearGradient>
<linearGradient id="paint3_linear_33_737" x1="45.5846" y1="14.489" x2="44.7573" y2="83.2488" gradientUnits="userSpaceOnUse">
<stop stop-color="#00ECFF"/>
<stop offset="1" stop-color="#018A9A"/>
</linearGradient>
<linearGradient id="paint4_linear_33_737" x1="55.048" y1="14.9471" x2="54.1608" y2="79.4548" gradientUnits="userSpaceOnUse">
<stop stop-color="#00ECFF"/>
<stop offset="1" stop-color="#019AAA"/>
</linearGradient>
<linearGradient id="paint5_linear_33_737" x1="-0.023022" y1="30.3565" x2="-11.7709" y2="63.3856" gradientUnits="userSpaceOnUse">
<stop offset="0.077" stop-color="#A1A7AA"/>
<stop offset="1" stop-color="#707070"/>
</linearGradient>
<linearGradient id="paint6_linear_33_737" x1="79.6726" y1="50.5247" x2="41.8239" y2="80.7786" gradientUnits="userSpaceOnUse">
<stop stop-color="#00ECFF"/>
<stop offset="1" stop-color="#007685"/>
</linearGradient>
</defs>
</svg>
