<svg width="50" height="50" viewBox="0 0 50 50" fill="none" xmlns="http://www.w3.org/2000/svg">
<path d="M46.478 12.3955C46.478 8.38281 41.1045 5.35742 33.978 5.35742C26.8516 5.35742 21.478 8.38281 21.478 12.3955C21.478 12.4312 21.4858 12.4648 21.4868 12.5H21.478V17.8569H25.0493V17.4146C27.2842 18.6748 30.4111 19.4326 33.978 19.4326C37.2686 19.4326 40.1758 18.7817 42.3623 17.6924C42.7012 18.043 42.9067 18.3916 42.9067 18.6973C42.9067 20.0767 39.3457 22.1631 33.978 22.1631H30.4077V25.7344H33.978C37.269 25.7344 40.1772 25.0835 42.3638 23.9937C42.7031 24.3438 42.9062 24.6924 42.9062 24.9995C42.9062 26.3799 39.3452 28.4663 33.9775 28.4663L32.7134 28.4722C31.9365 28.479 31.1841 28.4863 30.4507 28.4668L30.3633 32.0366C30.7559 32.0464 31.1533 32.0498 31.5586 32.0498C31.9458 32.0498 32.3398 32.0474 32.7402 32.0439L33.9775 32.0381C37.2705 32.0381 40.1797 31.3862 42.3667 30.2954C42.707 30.6484 42.9058 30.999 42.9058 31.3022C42.9058 32.6826 39.3447 34.769 33.977 34.769H30.4067V38.3403H33.977C37.27 38.3403 40.1787 37.6885 42.3662 36.5977C42.707 36.9502 42.9058 37.3008 42.9058 37.6045C42.9058 38.9849 39.3447 41.0713 33.977 41.0713H30.4067V44.6426H33.977C41.1035 44.6426 46.4771 41.6172 46.4771 37.6045C46.4771 37.5713 46.4727 37.5337 46.4717 37.5H46.4771V12.5H46.4683C46.4697 12.4648 46.478 12.4307 46.478 12.3955ZM25.0493 12.3955C25.0493 11.0151 28.6104 8.92871 33.978 8.92871C39.3457 8.92871 42.9067 11.0151 42.9067 12.3955C42.9067 13.7749 39.3457 15.8613 33.978 15.8613C28.6104 15.8613 25.0493 13.7749 25.0493 12.3955Z" fill="white"/>
<path d="M16.1206 17.8569C8.99414 17.8569 3.62061 20.8823 3.62061 24.895C3.62061 24.9307 3.62842 24.9644 3.62939 24.9995H3.62061V37.4995C3.62061 41.5122 8.99414 44.5376 16.1206 44.5376C23.2471 44.5376 28.6206 41.5122 28.6206 37.4995V25H28.6118C28.6128 24.9648 28.6206 24.9307 28.6206 24.8955C28.6206 20.8828 23.2471 17.8569 16.1206 17.8569ZM7.19189 31.1978C7.19189 30.8892 7.39355 30.541 7.73291 30.1909C9.91992 31.2812 12.8286 31.9326 16.1206 31.9326C19.4111 31.9326 22.3184 31.2817 24.5049 30.1924C24.8438 30.543 25.0493 30.8916 25.0493 31.1973C25.0493 32.5767 21.4883 34.6631 16.1206 34.6631C10.7529 34.6631 7.19189 32.5771 7.19189 31.1978ZM16.1206 21.4287C21.4883 21.4287 25.0493 23.5151 25.0493 24.8955C25.0493 26.2749 21.4883 28.3613 16.1206 28.3613C10.7529 28.3613 7.19189 26.2749 7.19189 24.8955C7.19189 23.5151 10.7529 21.4287 16.1206 21.4287ZM16.1206 40.9668C10.7529 40.9668 7.19189 38.8804 7.19189 37.5C7.19189 37.1929 7.39551 36.8442 7.73437 36.4941C9.92139 37.584 12.8291 38.2354 16.1206 38.2354C19.4116 38.2354 22.3198 37.5845 24.5063 36.4946C24.8457 36.8447 25.0488 37.1934 25.0488 37.5005C25.0493 38.8804 21.4883 40.9668 16.1206 40.9668Z" fill="white"/>
</svg>
