<svg width="1158" height="480" viewBox="0 0 1158 480" fill="none" xmlns="http://www.w3.org/2000/svg">
<path d="M246.76 345.528L262.062 155.411L326.516 76.1188L424.356 52.4702C534.716 58.4983 588.505 80.2921 604.271 86.7839C708.882 104.219 849.722 148.456 907.066 168.395L901.502 212.91L937.67 214.765L1156.54 288.493L1153.75 477.218H1074.46L1073.53 479.073H1067.04L1065.19 477.682H991.459V460.525H976.621V473.508H869.043V477.682H792.069V473.508H749.409V471.19L694.229 468.871V471.19C628.229 469.18 494.467 465.347 487.419 466.089C462.936 467.944 436.412 463.152 426.211 460.525L359.902 448.005V450.787L337.645 445.686L213.374 391.434L246.76 345.528Z" fill="#00727C" stroke="#404040"/>
<path d="M344.136 419.256L213.373 392.361L205.027 419.256L338.572 445.687L344.136 419.256Z" fill="#00727C" stroke="#404040"/>
<path d="M778.622 252.325L389.116 253.252L372.422 330.69H376.596V339.036H370.104L374.741 345.064L855.132 342.282V265.308L778.622 263.917V252.325Z" fill="#E6E6E6" stroke="#404040"/>
<path d="M49.2246 11.2014C65.9178 3.04026 89.8755 7.8009 99.7677 11.2014C90.8029 81.8381 72.0386 225.615 68.7 235.631C43.8457 232.664 13.2107 216.774 1 209.201C5.17329 192.662 17.2294 159.585 32.0678 159.585C71.0184 167.004 71.9458 134.545 68.7 130.372C66.1032 127.033 63.9084 97.4493 63.1356 83.0746C51.3885 75.3463 26.5034 58.3131 20.939 52.0068C15.3746 45.7005 13.6744 17.5386 13.5199 4.24589L24.1849 1C29.9039 4.40045 42.9183 11.2014 49.2246 11.2014Z" fill="#01ABBB" stroke="#404040"/>
<path d="M150.311 20.4756L99.7678 11.2017L69.6274 236.095L119.707 249.079L150.311 20.4756Z" fill="#01ABBB" stroke="#404040"/>
<path d="M318.633 70.0908C311.956 71.5747 203.327 37.6319 150.311 20.4751L120.17 249.542L211.519 273.654L236.559 167.004L283.856 181.378L288.493 165.149L281.074 162.83L291.739 126.662L301.94 129.444C307.195 111.36 318.633 74.1714 318.633 70.0908Z" fill="#01ABBB" stroke="#404040"/>
<path d="M422.502 58.0346L424.357 52.9339C390.043 54.7887 340.427 45.5147 335.79 44.5873C332.081 43.8454 327.444 46.7513 325.589 48.2969L301.94 129.444L399.781 159.121L419.72 67.7723H406.273V58.0346H422.502Z" fill="#E6E6E6" stroke="#404040"/>
<path d="M391.434 199.463L399.781 159.121L320.488 135.473L307.968 179.524C330.689 186.016 377.245 199.741 381.696 200.854C387.261 203.822 390.507 201.163 391.434 199.463Z" fill="#E6E6E6" stroke="#404040"/>
<path d="M291.739 126.662L320.488 135.009C316.933 148.301 310.194 175.814 307.968 179.524C304.259 179.895 301.167 172.568 300.549 168.859L281.074 162.367L291.739 126.662Z" fill="#64D3DD" stroke="#404040"/>
<path d="M292.666 183.697L303.331 187.87L280.61 294.521L211.519 273.654L236.559 167.467L285.247 181.842L283.392 190.189L289.884 192.043L292.666 183.697Z" fill="#E6E6E6" stroke="#404040"/>
<path d="M334.863 198.072L303.331 187.871L293.594 233.313L325.589 242.587L334.863 198.072Z" fill="#01ABBB" stroke="#404040"/>
<path d="M382.16 211.055L335.327 198.072L325.589 242.587L378.45 259.28C380.924 248.46 386.148 225.43 387.261 219.866C388.374 214.301 384.324 211.674 382.16 211.055Z" fill="#E6E6E6" stroke="#404040"/>
<path d="M286.638 266.699L294.057 233.313L378.45 259.28L371.031 293.13L286.638 266.699Z" fill="#01ABBB" stroke="#404040"/>
<path d="M280.61 294.521L286.638 266.699L371.032 293.13L364.54 320.488L280.61 294.521Z" fill="#64D3DD" stroke="#404040"/>
<path d="M245.833 283.856L364.54 320.488L359.903 340.427L271.8 319.097L265.308 347.383L229.604 339.5L245.833 283.856Z" fill="#01ABBB" stroke="#404040"/>
<path d="M271.8 319.097L359.902 340.427L358.975 345.992L277.828 328.835L259.743 401.635L213.374 391.898L229.603 339.036L265.308 347.383L271.8 319.097Z" fill="#01ABBB" stroke="#404040"/>
<path d="M323.27 338.573L277.828 328.835L269.945 361.758L315.851 371.959L323.27 338.573Z" fill="#E6E6E6" stroke="#404040"/>
<path d="M358.975 345.991L323.27 338.572L315.851 371.959L352.02 379.841L358.975 345.991Z" fill="#E6E6E6" stroke="#404040"/>
<path d="M259.744 401.635L269.945 361.757L315.851 371.959L307.041 411.373L259.744 401.635Z" fill="#01ABBB" stroke="#404040"/>
<path d="M352.02 379.841L315.851 371.958L307.041 411.373L344.137 419.256L352.02 379.841Z" fill="#01ABBB" stroke="#404040"/>
<path d="M488.347 72.8733C455.888 65.4542 447.851 67.1544 430.848 67.309L414.155 139.646L540.281 167.004L556.974 89.1028L497.157 75.6555L495.302 80.7562H488.347V72.8733Z" fill="#01ABBB" stroke="#404040"/>
<path d="M389.579 253.252L413.691 139.646L540.281 167.004L521.733 249.542L520.806 253.252H425.748H389.579Z" fill="#E6E6E6" stroke="#404040"/>
<path d="M581.55 95.1313L556.511 89.5669L521.27 253.252H564.857L596.389 106.724L588.969 104.869L587.578 106.724L579.696 104.869L581.55 95.1313Z" fill="#01ABBB" stroke="#404040"/>
<path d="M734.571 126.662L601.489 99.3037L600.562 107.65L595.925 106.723L565.321 253.252L779.086 252.324V213.837L862.088 211.982C864.561 201.781 869.878 178.967 871.362 169.322C799.025 141.871 755.592 130.99 742.917 128.98L740.135 137.791L733.18 136.4L734.571 126.662Z" fill="#01ABBB" stroke="#404040"/>
<path d="M779.086 213.374L860.697 211.982H881.563L889.91 220.329L925.151 222.184V267.163L779.086 263.917V213.374Z" fill="#01ABBB" stroke="#404040"/>
<path d="M925.151 267.163L855.133 265.772V342.746H922.833L927.47 338.573V280.61L925.615 278.756L925.151 267.163Z" fill="#01ABBB" stroke="#404040"/>
<path d="M940.452 343.21L938.134 337.645V287.566H1061.48V294.985H1069.36V298.231H1071.22V328.835H1065.65V337.645H1071.22L1065.65 343.21H940.452Z" fill="#01ABBB" stroke="#404040"/>
<path d="M939.525 277.828L938.134 214.301C990.439 211.705 1054.52 217.856 1080.03 221.257V286.175H1069.82V288.029H936.279V277.828H939.525Z" fill="#FFB573" stroke="#404040"/>
<path d="M1080.03 286.175V221.257C1109.33 232.015 1143.55 256.034 1157 266.699V288.493H1145.87V350.165H1080.03V299.158H1082.81V295.912H1092.08V286.175H1080.03Z" fill="#01ABBB" stroke="#404040"/>
<path d="M375.668 354.802L383.087 362.685L371.031 408.127L356.193 404.881L365.931 358.511L370.104 354.802H375.668Z" fill="#64D3DD" stroke="#404040"/>
<path d="M383.088 353.875V362.685L363.612 437.804L422.966 449.86L436.877 353.875H383.088Z" fill="#01ABBB" stroke="#404040"/>
<path d="M556.047 352.947L436.876 353.875C432.548 383.242 423.707 443.554 422.965 449.86C442.255 454.683 468.408 455.888 479.073 455.888L554.192 457.279L556.047 352.947Z" fill="#E6E6E6" stroke="#404040"/>
<path d="M617.255 352.947H556.047L554.192 457.279L597.78 458.207V447.078H607.054V459.134H617.255V352.947Z" fill="#01ABBB" stroke="#404040"/>
<path d="M687.737 352.947H617.255V459.598H670.58V462.38H710.458V460.062H736.889L735.498 352.947H696.547V363.149H687.737V352.947Z" fill="#E6E6E6" stroke="#404040"/>
<path d="M914.022 353.411L735.498 352.947L736.889 460.062L802.734 462.38L812.472 450.324V409.055H914.022V353.411Z" fill="#01ABBB" stroke="#404040"/>
<path d="M940.916 376.596V353.411H1061.94V371.031H1069.82V443.832L1065.65 447.541H928.396L917.731 437.34V409.054H914.021V376.596H940.916Z" fill="#01ABBB" stroke="#404040"/>
<path d="M1145.87 350.165H1080.03V403.026H1145.87V350.165Z" fill="#E6E6E6" stroke="#404040"/>
<path d="M1080.03 424.357V403.49H1146.33V424.357H1080.03Z" fill="#01ABBB" stroke="#404040"/>
<path d="M1080.03 471.19V424.357H1146.33V471.19H1080.03Z" fill="#E6E6E6" stroke="#404040"/>
</svg>
