<svg width="81" height="45" viewBox="0 0 81 45" fill="none" xmlns="http://www.w3.org/2000/svg">
<path d="M80.029 16.912C80.029 16.756 79.835 16.656 79.677 16.729L78.179 17.413C78.0464 17.4695 77.9286 17.556 77.8349 17.6657C77.7412 17.7753 77.6742 17.9051 77.639 18.045L77.323 19.515L52.82 23.57C50.625 19.527 46.799 16.166 42.8 15.038L41.31 1.41697C41.274 1.09197 40.984 0.844971 40.638 0.844971H39.336C38.99 0.844971 38.7 1.09197 38.665 1.41697L37.175 15.038C33.179 16.165 29.355 19.522 27.159 23.562L2.70402 19.515L2.38802 18.045C2.35363 17.9051 2.28709 17.7751 2.19371 17.6654C2.10032 17.5557 1.98264 17.4693 1.85002 17.413L0.350023 16.728C0.191023 16.656 -0.000976562 16.756 -0.000976562 16.912V23.045C-0.000976562 23.879 0.579024 24.632 1.47002 24.955L5.79002 26.52C5.09954 27.2401 4.71279 28.1983 4.71002 29.196C4.71002 31.416 6.61602 33.216 8.96802 33.216C11.313 33.216 13.214 31.426 13.226 29.216L15.531 30.051C15.143 30.4139 14.8333 30.8523 14.6209 31.3394C14.4085 31.8264 14.298 32.3517 14.296 32.883C14.296 35.103 16.202 36.903 18.554 36.903C20.905 36.903 22.812 35.103 22.812 32.883C22.812 32.817 22.81 32.753 22.807 32.688L25.717 33.742C27.469 39.857 33.922 44.402 39.987 44.402C46.046 44.402 52.491 39.867 54.251 33.764L57.167 32.707C57.1644 32.7653 57.1631 32.8236 57.163 32.882C57.163 35.103 59.069 36.903 61.421 36.903C63.773 36.903 65.679 35.103 65.679 32.883C65.6771 32.355 65.5678 31.833 65.3579 31.3486C65.148 30.8642 64.8419 30.4275 64.458 30.065L66.75 29.235C66.772 31.437 68.669 33.217 71.007 33.217C73.358 33.217 75.265 31.417 75.265 29.196C75.2619 28.2056 74.8801 27.254 74.198 26.536L78.558 24.956C79.449 24.631 80.03 23.879 80.03 23.044L80.029 16.912ZM8.96702 30.932C7.95202 30.932 7.12802 30.155 7.12802 29.196C7.12802 28.381 7.72402 27.699 8.52602 27.512L10.491 28.224C10.689 28.502 10.805 28.836 10.805 29.196C10.805 30.155 9.98202 30.932 8.96702 30.932ZM18.553 34.618C17.537 34.618 16.714 33.841 16.714 32.883C16.714 31.923 17.537 31.147 18.553 31.147L19.777 31.59C20.153 31.908 20.391 32.368 20.391 32.883C20.391 33.841 19.568 34.618 18.553 34.618ZM38.683 30.032C36.5071 29.9175 34.3559 29.5146 32.286 28.834C30.652 28.299 29.392 26.396 29.392 24.834C29.392 24.499 29.45 24.207 29.557 23.96C29.947 23.05 31 22.748 32.287 23.169C34.356 23.8505 36.5066 24.2534 38.682 24.367L38.683 30.032ZM47.686 28.834C45.6165 29.5152 43.4657 29.9184 41.29 30.033V24.367C43.4658 24.2534 45.6167 23.8505 47.686 23.169C48.974 22.747 50.031 23.051 50.419 23.969C50.524 24.213 50.58 24.502 50.58 24.834C50.58 26.395 49.32 28.299 47.686 28.834ZM61.42 34.618C60.404 34.618 59.581 33.841 59.581 32.883C59.581 32.386 59.803 31.94 60.156 31.623L61.466 31.149C62.46 31.172 63.258 31.939 63.258 32.883C63.258 33.841 62.435 34.618 61.42 34.618ZM71.005 30.932C69.99 30.932 69.167 30.155 69.167 29.196C69.167 28.846 69.277 28.522 69.465 28.25L71.479 27.52C72.264 27.718 72.844 28.392 72.844 29.196C72.844 30.155 72.021 30.932 71.005 30.932Z" fill="white"/>
</svg>
