<svg width="78" height="45" viewBox="0 0 78 45" fill="none" xmlns="http://www.w3.org/2000/svg">
<g clip-path="url(#clip0_33_868)">
<path fill-rule="evenodd" clip-rule="evenodd" d="M0.679199 33.5341L8.0832 25.1641H2.7452L7.1852 20.1811L12.4772 20.1961L19.7952 11.9231H17.3532L21.2842 8.31312H22.9892L29.5262 0.923119H35.4342L29.3292 8.31312H46.6792L40.6602 0.922119H46.5682L53.1052 8.31212H54.4792L58.7412 11.9221H56.3002L63.7432 20.3371L67.6542 20.3481L72.3112 25.1631H68.0112L77.2592 35.6171C75.4982 38.7238 73.4677 41.6697 71.1912 44.4211H7.8862C5.1882 41.1771 2.7682 37.5241 0.679199 33.5341ZM49.6192 11.9241H26.3472L19.4972 20.2151L56.4572 20.3181L49.6202 11.9231L49.6192 11.9241ZM5.4642 37.2001L15.4082 25.1641H60.4042L70.2062 37.2001H5.4632H5.4642Z" fill="white"/>
</g>
<defs>
<clipPath id="clip0_33_868">
<rect width="78" height="45" fill="white"/>
</clipPath>
</defs>
</svg>
