<svg width="40" height="38" viewBox="0 0 40 38" fill="none" xmlns="http://www.w3.org/2000/svg">
<path d="M11.25 2.24951C4.83618 2.24951 0 4.97236 0 8.58379C0 8.61587 0.00703126 8.64619 0.00791017 8.67783H0V19.9278C0 23.5393 4.83618 26.2621 11.25 26.2621C17.6638 26.2621 22.5 23.5393 22.5 19.9278V8.67827H22.4921C22.493 8.64663 22.5 8.61587 22.5 8.58423C22.5 4.9728 17.6638 2.24951 11.25 2.24951ZM3.21416 14.2563C3.21416 13.9785 3.39565 13.6652 3.70107 13.3501C5.66938 14.3314 8.28721 14.9176 11.25 14.9176C14.2115 14.9176 16.828 14.3318 18.7958 13.3514C19.1008 13.6669 19.2858 13.9807 19.2858 14.2558C19.2858 15.4973 16.0809 17.3751 11.25 17.3751C6.41909 17.3751 3.21416 15.4977 3.21416 14.2563ZM11.25 5.46411C16.0809 5.46411 19.2858 7.34189 19.2858 8.58423C19.2858 9.82568 16.0809 11.7035 11.25 11.7035C6.41909 11.7035 3.21416 9.82568 3.21416 8.58423C3.21416 7.34189 6.41909 5.46411 11.25 5.46411ZM11.25 23.0484C6.41909 23.0484 3.21416 21.1706 3.21416 19.9283C3.21416 19.6519 3.39741 19.3381 3.70239 19.023C5.6707 20.0039 8.28765 20.5901 11.25 20.5901C14.2119 20.5901 16.8293 20.0043 18.7972 19.0234C19.1026 19.3385 19.2854 19.6523 19.2854 19.9287C19.2858 21.1706 16.0809 23.0484 11.25 23.0484Z" fill="white"/>
<path d="M33.2598 13.6362C33.2598 6.10498 27.1548 0 19.6235 0L20.1748 0.55127C22.732 3.10853 24.1688 6.57686 24.1689 10.1934V25.1621H18L28.7144 37.5L39.4287 25.1621H33.2598V13.6362ZM28.7144 32.0527L25.8315 28.7334H27.7402V10.1934C27.7402 9.24707 27.6646 8.3125 27.5156 7.396C28.8755 9.11231 29.6885 11.2808 29.6885 13.6357V28.7329H31.5972L28.7144 32.0527Z" fill="white"/>
</svg>
