<svg width="49" height="44" viewBox="0 0 49 44" fill="none" xmlns="http://www.w3.org/2000/svg">
<path d="M48.0752 6.33428C48.0752 2.72285 43.239 0 36.8252 0C30.4114 0 25.5752 2.72285 25.5752 6.33428C25.5752 6.36636 25.5822 6.39668 25.5831 6.42832H25.5752V11.2496H28.7894V10.8514C30.8007 11.9856 33.615 12.6677 36.8252 12.6677C39.7867 12.6677 42.4032 12.0819 44.371 11.1015C44.676 11.417 44.861 11.7308 44.861 12.0059C44.861 13.2473 41.6561 15.1251 36.8252 15.1251H33.6119V18.3393H36.8252C39.7871 18.3393 42.4045 17.7535 44.3724 16.7726C44.6778 17.0877 44.8606 17.4015 44.8606 17.6779C44.8606 18.9202 41.6557 20.798 36.8248 20.798L35.687 20.8033C34.9878 20.8094 34.3106 20.816 33.6506 20.7984L33.5719 24.0113C33.9252 24.0201 34.283 24.0231 34.6477 24.0231C34.9962 24.0231 35.3508 24.0209 35.7112 24.0179L36.8248 24.0126C39.7884 24.0126 42.4067 23.4259 44.375 22.4442C44.6813 22.7619 44.8602 23.0774 44.8602 23.3503C44.8602 24.5927 41.6552 26.4705 36.8243 26.4705H33.611V29.6846H36.8243C39.788 29.6846 42.4058 29.098 44.3746 28.1162C44.6813 28.4335 44.8602 28.749 44.8602 29.0224C44.8602 30.2647 41.6552 32.1425 36.8243 32.1425H33.611V35.3566H36.8243C43.2381 35.3566 48.0743 32.6338 48.0743 29.0224C48.0743 28.9925 48.0704 28.9586 48.0695 28.9283H48.0743V6.42832H48.0664C48.0677 6.39668 48.0752 6.36592 48.0752 6.33428ZM28.7894 6.33428C28.7894 5.09194 31.9943 3.21416 36.8252 3.21416C41.6561 3.21416 44.861 5.09194 44.861 6.33428C44.861 7.57573 41.6561 9.45352 36.8252 9.45352C31.9943 9.45352 28.7894 7.57573 28.7894 6.33428Z" fill="white"/>
<path d="M16.0708 5.20801L0 16.458V43.7612H32.146V16.458L16.0708 5.20801ZM28.9292 40.5488H3.2124V18.1323L16.0708 9.13232L28.9292 18.1323V40.5488Z" fill="white"/>
<path d="M8.03711 32.5376H24.1079V35.75H8.03711V32.5376Z" fill="white"/>
</svg>
