<svg width="74" height="74" viewBox="0 0 74 74" fill="none" xmlns="http://www.w3.org/2000/svg">
<g clip-path="url(#clip0_33_873)">
<mask id="mask0_33_873" style="mask-type:luminance" maskUnits="userSpaceOnUse" x="0" y="0" width="74" height="74">
<path d="M0 0H74V74H0V0Z" fill="white"/>
</mask>
<g mask="url(#mask0_33_873)">
<path d="M17.2662 48.7168C13.1862 48.7168 9.86621 52.0348 9.86621 56.1168C9.86621 60.1968 13.1862 63.5168 17.2662 63.5168C21.3472 63.5168 24.6662 60.1968 24.6662 56.1168C24.6662 52.0348 21.3472 48.7168 17.2662 48.7168ZM17.2662 61.0498C15.9583 61.0485 14.7043 60.5283 13.7795 59.6035C12.8547 58.6787 12.3345 57.4247 12.3332 56.1168C12.3343 54.8087 12.8543 53.5545 13.7792 52.6295C14.704 51.7044 15.9581 51.1841 17.2662 51.1828C18.5745 51.1839 19.8288 51.704 20.7539 52.6291C21.679 53.5542 22.1992 54.8085 22.2002 56.1168C22.1989 57.4249 21.6786 58.679 20.7536 59.6038C19.8285 60.5287 18.5743 61.0487 17.2662 61.0498ZM59.2002 48.7168C55.1202 48.7168 51.8002 52.0348 51.8002 56.1168C51.8002 60.1968 55.1202 63.5168 59.2002 63.5168C63.2822 63.5168 66.6002 60.1968 66.6002 56.1168C66.6002 52.0348 63.2822 48.7168 59.2002 48.7168ZM59.2002 61.0498C57.8923 61.0485 56.6383 60.5283 55.7135 59.6035C54.7887 58.6787 54.2685 57.4247 54.2672 56.1168C54.2683 54.8085 54.7884 53.5542 55.7135 52.6291C56.6386 51.704 57.893 51.1839 59.2012 51.1828C60.5093 51.1841 61.7634 51.7044 62.6883 52.6295C63.6131 53.5545 64.1332 54.8087 64.1342 56.1168C64.1329 57.4247 63.6127 58.6787 62.6879 59.6035C61.7631 60.5283 60.5081 61.0485 59.2002 61.0498Z" fill="white"/>
<path d="M73.8032 41.8828L62.7032 24.6158C62.5915 24.4423 62.438 24.2995 62.2568 24.2006C62.0757 24.1018 61.8726 24.0499 61.6662 24.0498H48.1002C47.4172 24.0498 46.8662 24.6018 46.8662 25.2828V56.1158C46.8662 56.7978 47.4172 57.3498 48.0992 57.3498H53.0332V54.8828H49.3332V26.5158H60.9932L71.5332 42.9118V54.8828H65.3662V57.3498H72.7662C73.4482 57.3498 73.9992 56.7988 73.9992 56.1168V42.5498C73.9992 42.3138 73.9322 42.0808 73.8032 41.8828Z" fill="white"/>
<path d="M71.534 40.083L64.134 31.45V28.983H53.034C52.352 28.983 51.801 29.536 51.801 30.217V41.317C51.801 41.999 52.352 42.55 53.034 42.55H71.534V40.083ZM48.1 15.417H1.233C0.553 15.417 0 15.969 0 16.65V56.117C0 56.799 0.553 57.35 1.233 57.35H11.1V54.883H2.467H46.867H23.433V57.35H48.1C48.782 57.35 49.333 56.799 49.333 56.117V16.65C49.333 15.97 48.782 15.417 48.1 15.417Z" fill="white"/>
<path d="M8.632 49.9499H1.232V52.4169H8.632V49.9499ZM46.866 49.9499H25.9V52.4169H46.867L46.866 49.9499ZM72.767 49.9499H67.834V52.4169H72.767V49.9499ZM18.5 54.8829H16.033V57.3499H18.5V54.8829ZM60.434 54.8829H57.967V57.3499H60.434V54.8829ZM22.2 10.4829H4.934V12.9499H22.2V10.4829ZM2.467 10.4829H0V12.9499H2.467V10.4829Z" fill="white"/>
</g>
</g>
<defs>
<clipPath id="clip0_33_873">
<rect width="74" height="74" fill="white"/>
</clipPath>
</defs>
</svg>
