<svg width="45" height="45" viewBox="0 0 45 45" fill="none" xmlns="http://www.w3.org/2000/svg">
<g clip-path="url(#clip0_33_836)">
<path d="M8.8546 28.8501L4.00267 35.3436C3.22088 36.3932 2.80762 37.6413 2.80762 38.953C2.80762 42.2874 5.52024 45 8.8546 45C12.189 45 14.9016 42.2873 14.9016 38.953C14.9016 37.6415 14.4884 36.3934 13.7053 35.342L8.8546 28.8501ZM8.8546 42.2165C7.05506 42.2165 5.59112 40.7525 5.59112 38.953C5.59112 38.245 5.81371 37.5718 6.23374 37.0081L8.8546 33.5004L11.4742 37.0063C11.8954 37.5719 12.118 38.2451 12.118 38.953C12.1181 40.7525 10.654 42.2165 8.8546 42.2165Z" fill="#01ABBB"/>
<path d="M42.1933 11.134V8.35052H36.1624V6.49485H30.7976V2.78351H36.6263V0H22.1855V2.78351H28.0141V6.49485H22.6494V8.35052H13.3664C7.77313 8.35052 3.22266 12.901 3.22266 18.4943V25.7106H14.4869V19.6147H22.6494V21.4704H36.1625V19.6147H42.1934V16.8312H36.1625V11.134H42.1933ZM13.3664 16.8313C12.4494 16.8313 11.7034 17.5774 11.7034 18.4943V22.9271H6.00616V18.4943C6.00616 14.4358 9.30795 11.134 13.3664 11.134H22.6494V16.8313H13.3664ZM33.3789 18.687H25.4328V9.27835H33.3789V18.687Z" fill="#01ABBB"/>
</g>
<defs>
<clipPath id="clip0_33_836">
<rect width="45" height="45" fill="white"/>
</clipPath>
</defs>
</svg>
